<svg id="visual" viewBox="0 0 900 600" width="900" height="600" xmlns="http://www.w3.org/2000/svg" xmlns:xlink="http://www.w3.org/1999/xlink" version="1.1"><rect x="0" y="0" width="900" height="600" fill="#140021"></rect><path d="M0 338L113 338L113 333L225 333L225 373L338 373L338 289L450 289L450 273L563 273L563 268L675 268L675 356L788 356L788 279L900 279L900 371L900 601L900 601L788 601L788 601L675 601L675 601L563 601L563 601L450 601L450 601L338 601L338 601L225 601L225 601L113 601L113 601L0 601Z" fill="#9900ff"></path><path d="M0 435L113 435L113 402L225 402L225 416L338 416L338 331L450 331L450 447L563 447L563 335L675 335L675 411L788 411L788 439L900 439L900 389L900 601L900 601L788 601L788 601L675 601L675 601L563 601L563 601L450 601L450 601L338 601L338 601L225 601L225 601L113 601L113 601L0 601Z" fill="#8200d9"></path><path d="M0 412L113 412L113 416L225 416L225 426L338 426L338 451L450 451L450 469L563 469L563 428L675 428L675 499L788 499L788 417L900 417L900 410L900 601L900 601L788 601L788 601L675 601L675 601L563 601L563 601L450 601L450 601L338 601L338 601L225 601L225 601L113 601L113 601L0 601Z" fill="#6c00b4"></path><path d="M0 473L113 473L113 486L225 486L225 508L338 508L338 536L450 536L450 534L563 534L563 492L675 492L675 540L788 540L788 491L900 491L900 478L900 601L900 601L788 601L788 601L675 601L675 601L563 601L563 601L450 601L450 601L338 601L338 601L225 601L225 601L113 601L113 601L0 601Z" fill="#560090"></path></svg>