<svg width="100" height="100" viewBox="0 0 400 400" fill="none" xmlns="http://www.w3.org/2000/svg">
<path d="M139.61 162.89L128.45 124.79H90.64" stroke="#5B21B6" stroke-width="12" stroke-miterlimit="10" stroke-linecap="round" stroke-linejoin="round"/>
<path d="M165.54 251.15L147.31 289.75C143.73 297.32 149.26 306.04 157.63 306.04H280.68" stroke="#5B21B6" stroke-width="12" stroke-miterlimit="10" stroke-linecap="round" stroke-linejoin="round"/>
<path d="M283.44 251.15H165.54L139.61 162.89H309.36L283.44 251.15Z" stroke="#5B21B6" stroke-width="12" stroke-miterlimit="10" stroke-linecap="round" stroke-linejoin="round"/>
<path d="M210.89 82.21L199.68 96.66C195.27 102.34 187.09 103.38 181.41 98.97L166.96 87.76C161.28 83.35 160.24 75.17 164.65 69.49L175.86 55.04C180.27 49.36 188.45 48.32 194.13 52.73L208.58 63.94C214.26 68.35 215.3 76.53 210.89 82.21Z" stroke="#5B21B6" stroke-width="12" stroke-miterlimit="10" stroke-linecap="round" stroke-linejoin="round"/>
<path d="M275.33 122.36L260.91 133.61C255.24 138.04 247.06 137.03 242.63 131.36L231.38 116.94C226.95 111.27 227.96 103.09 233.63 98.66L248.05 87.41C253.72 82.98 261.9 83.99 266.33 89.66L277.58 104.08C282 109.75 280.99 117.93 275.33 122.36Z" stroke="#5B21B6" stroke-width="12" stroke-miterlimit="10" stroke-linecap="round" stroke-linejoin="round"/>
<!-- <path d="M168.01 350C175.482 350 181.54 343.942 181.54 336.47C181.54 328.998 175.482 322.94 168.01 322.94C160.538 322.94 154.48 328.998 154.48 336.47C154.48 343.942 160.538 350 168.01 350Z" stroke="#5B21B6" stroke-width="12" stroke-miterlimit="10" stroke-linecap="round" stroke-linejoin="round"/>
<path d="M268 350C275.472 350 281.53 343.942 281.53 336.47C281.53 328.998 275.472 322.94 268 322.94C260.528 322.94 254.47 328.998 254.47 336.47C254.47 343.942 260.528 350 268 350Z" stroke="#5B21B6" stroke-width="12" stroke-miterlimit="10" stroke-linecap="round" stroke-linejoin="round"/> -->
</svg>
