<?xml version="1.0" encoding="utf-8"?>
<!-- Generator: Adobe Illustrator 27.5.0, SVG Export Plug-In . SVG Version: 6.00 Build 0)  -->
<svg version="1.1" xmlns="http://www.w3.org/2000/svg" xmlns:xlink="http://www.w3.org/1999/xlink" x="0px" y="0px"
	 viewBox="0 0 750 500" style="enable-background:new 0 0 750 500;" xml:space="preserve">
<g id="BACKGROUND">
	<rect style="fill:#FFFFFF;" width="750" height="500"/>
</g>
<g id="OBJECTS">
	<g>
		<g>
			<path style="fill:#71BF9D;" d="M596.247,335.31c-1.848-9.519-19.542-11.104-19.542-11.104s10.338-17.241,3.006-25.049
				s-24.18,10.53-24.18,10.53s-5.563-11.587-13.837,0c0,0-13.787-10.529-25.71-5.117c-8.516,3.865-7.261,14.075-5.848,19.597
				H275.981c-0.198-0.41-0.444-0.806-0.754-1.18c-7.909-9.546-30.849-4.632-30.849-4.632s9.581-23.659-6.217-30.83
				c-15.799-7.17-34.066,6.78-34.066,6.78c-10.963-15.353-18.333,0-18.333,0s-22.323-24.297-32.038-13.952
				c-9.714,10.345,3.983,33.189,3.983,33.189s-23.444,2.1-25.892,14.712c-2.448,12.613,40.561,25.708,40.561,25.708l393.259,0.75
				C565.634,354.712,598.095,344.829,596.247,335.31z"/>
			<g>
				
					<path style="fill:none;stroke:#E57E55;stroke-width:0.9971;stroke-linecap:round;stroke-linejoin:round;stroke-miterlimit:10;" d="
					M194.01,350.25c-7.066-20.03-17.809-38.756-31.532-54.966"/>
				
					<path style="fill:none;stroke:#E57E55;stroke-width:0.9971;stroke-linecap:round;stroke-linejoin:round;stroke-miterlimit:10;" d="
					M194.001,350.969c0.547-15.811,2.193-31.584,4.922-47.167"/>
				
					<path style="fill:none;stroke:#E57E55;stroke-width:0.9971;stroke-linecap:round;stroke-linejoin:round;stroke-miterlimit:10;" d="
					M189.756,339.993c-10.198-5.059-21.149-8.596-32.38-10.458"/>
				
					<path style="fill:none;stroke:#E57E55;stroke-width:0.9971;stroke-linecap:round;stroke-linejoin:round;stroke-miterlimit:10;" d="
					M179.345,318.531c2.056-4.781,3.462-9.84,4.168-14.996"/>
			</g>
			<g>
				
					<path style="fill:none;stroke:#E57E55;stroke-width:0.7983;stroke-linecap:round;stroke-linejoin:round;stroke-miterlimit:10;" d="
					M547.864,352.007c5.657-16.036,14.258-31.029,25.245-44.007"/>
				
					<path style="fill:none;stroke:#E57E55;stroke-width:0.7983;stroke-linecap:round;stroke-linejoin:round;stroke-miterlimit:10;" d="
					M547.871,352.582c-0.438-12.659-1.756-25.287-3.94-37.763"/>
				
					<path style="fill:none;stroke:#E57E55;stroke-width:0.7983;stroke-linecap:round;stroke-linejoin:round;stroke-miterlimit:10;" d="
					M551.27,343.795c8.165-4.05,16.933-6.882,25.924-8.373"/>
				
					<path style="fill:none;stroke:#E57E55;stroke-width:0.7983;stroke-linecap:round;stroke-linejoin:round;stroke-miterlimit:10;" d="
					M559.605,326.612c-1.646-3.828-2.772-7.878-3.337-12.006"/>
			</g>
			<g>
				<g>
					<g>
						<path style="fill:#FFFFFF;" d="M173.981,285.939c0.198,0.04,0.343,0.148,0.493,0.25c0.134,0.122,0.273,0.238,0.355,0.424
							c0.096,0.216-0.002,0.471-0.217,0.573c-0.089,0.042-0.184,0.051-0.271,0.032c-0.195-0.043-0.339-0.148-0.487-0.248
							c-0.132-0.121-0.268-0.236-0.352-0.418c-0.098-0.212-0.006-0.47,0.206-0.576C173.796,285.931,173.892,285.921,173.981,285.939
							z"/>
					</g>
					<g>
						<path style="fill:#FFFFFF;" d="M175.583,287.229c0.196,0.046,0.338,0.158,0.485,0.264c0.13,0.126,0.265,0.247,0.344,0.432
							c0.091,0.217-0.015,0.471-0.232,0.566c-0.09,0.04-0.184,0.046-0.272,0.025c-0.196-0.045-0.336-0.156-0.481-0.261
							c-0.128-0.125-0.261-0.244-0.34-0.429c-0.093-0.213,0.005-0.468,0.221-0.568C175.398,287.217,175.495,287.209,175.583,287.229
							z"/>
					</g>
					<g>
						<path style="fill:#FFFFFF;" d="M177.148,288.561c0.197,0.049,0.335,0.165,0.479,0.275c0.127,0.129,0.258,0.253,0.332,0.441
							c0.087,0.218-0.025,0.47-0.245,0.56c-0.09,0.037-0.187,0.042-0.273,0.02c-0.195-0.05-0.332-0.165-0.474-0.273
							c-0.125-0.128-0.254-0.252-0.33-0.436c-0.088-0.215,0.017-0.468,0.236-0.563C176.964,288.545,177.061,288.539,177.148,288.561
							z"/>
					</g>
					<g>
						<path style="fill:#FFFFFF;" d="M179.85,291.012c0.193,0.057,0.329,0.177,0.469,0.292c0.121,0.134,0.248,0.263,0.314,0.454
							c0.077,0.222-0.042,0.468-0.266,0.551c-0.092,0.034-0.188,0.035-0.273,0.009c-0.192-0.058-0.325-0.178-0.463-0.292
							c-0.121-0.132-0.247-0.259-0.315-0.448c-0.079-0.22,0.036-0.468,0.258-0.554C179.667,290.988,179.764,290.986,179.85,291.012z
							"/>
					</g>
					<g>
						<path style="fill:#FFFFFF;" d="M181.716,292.815c0.141,0.012,0.223,0.085,0.309,0.152c0.068,0.086,0.141,0.168,0.153,0.309
							c0.023,0.273-0.181,0.517-0.454,0.547c-0.032,0.004-0.066,0.004-0.097,0.001c-0.141-0.012-0.22-0.085-0.306-0.152
							c-0.067-0.085-0.14-0.165-0.152-0.306c-0.024-0.271,0.175-0.518,0.448-0.55C181.649,292.813,181.684,292.813,181.716,292.815z
							"/>
					</g>
					<g>
						<path style="fill:#FFFFFF;" d="M183.242,294.396c0.141,0.016,0.221,0.091,0.306,0.161c0.066,0.089,0.137,0.172,0.145,0.314
							c0.016,0.275-0.199,0.51-0.471,0.533c-0.032,0.003-0.066,0.002-0.097-0.001c-0.14-0.016-0.218-0.09-0.301-0.159
							c-0.065-0.087-0.135-0.169-0.144-0.309c-0.017-0.271,0.188-0.513,0.461-0.539C183.175,294.392,183.21,294.392,183.242,294.396
							z"/>
					</g>
				</g>
				<g>
					<g>
						<path style="fill:#FFFFFF;" d="M156.089,280.604c1.349-0.861,2.962-1.172,4.522-1.184c1.592,0.04,3.116,0.465,4.543,1.04
							c1.423,0.596,2.769,1.335,4.064,2.139c1.291,0.812,2.524,1.706,3.712,2.649c0.164,0.132,0.187,0.374,0.053,0.542
							c-0.13,0.162-0.359,0.195-0.52,0.08c-1.222-0.866-2.466-1.697-3.741-2.464c-1.272-0.771-2.585-1.47-3.945-2.022
							c-1.351-0.564-2.771-0.966-4.183-1.018c-1.429-0.014-2.876,0.21-4.104,0.904c-0.17,0.09-0.405,0.019-0.524-0.16
							C155.852,280.937,155.908,280.715,156.089,280.604z"/>
					</g>
					<g>
						<path style="fill:#FFFFFF;" d="M155.637,281.771c-0.047,0.165-0.168,0.238-0.247,0.361c-0.104,0.097-0.201,0.197-0.366,0.242
							c-0.226,0.062-0.491-0.056-0.57-0.289c-0.025-0.074-0.027-0.154-0.011-0.227c0.04-0.181,0.147-0.307,0.248-0.437
							c0.112-0.118,0.261-0.202,0.441-0.241c0.256-0.047,0.476,0.13,0.519,0.371C155.664,281.629,155.658,281.705,155.637,281.771z"
							/>
					</g>
					<g>
						<path style="fill:#FFFFFF;" d="M154.544,282.982c-0.006,0.172-0.08,0.292-0.15,0.417c-0.098,0.107-0.159,0.237-0.307,0.322
							c-0.201,0.117-0.482,0.061-0.616-0.15c-0.042-0.067-0.064-0.144-0.068-0.22c-0.006-0.185,0.054-0.336,0.141-0.473
							c0.102-0.128,0.198-0.26,0.363-0.341c0.228-0.112,0.484,0,0.59,0.226C154.531,282.834,154.546,282.911,154.544,282.982z"/>
					</g>
					<g>
						<path style="fill:#FFFFFF;" d="M153.741,284.426c-0.063,0.296-0.149,0.578-0.237,0.859l-0.218,0.862
							c-0.144,0.577-0.265,1.159-0.425,1.746c-0.06,0.198-0.275,0.319-0.483,0.267c-0.176-0.043-0.286-0.195-0.288-0.364
							c-0.018-0.637,0.099-1.265,0.229-1.889l0.287-0.917c0.124-0.298,0.265-0.59,0.421-0.871c0.105-0.193,0.369-0.235,0.544-0.118
							C153.723,284.102,153.768,284.266,153.741,284.426z"/>
					</g>
					<g>
						<path style="fill:#FFFFFF;" d="M152.732,289.422c0.088,0.094,0.09,0.184,0.1,0.274c-0.016,0.089-0.025,0.178-0.12,0.267
							c-0.216,0.201-0.559,0.205-0.766-0.006l-0.011-0.011c-0.088-0.095-0.09-0.189-0.1-0.283c0.017-0.093,0.026-0.187,0.12-0.276
							c0.215-0.203,0.557-0.186,0.764,0.023L152.732,289.422z"/>
					</g>
					<g>
						<path style="fill:#FFFFFF;" d="M152.737,291.241c0.094,0.088,0.103,0.177,0.119,0.267c-0.01,0.09-0.012,0.18-0.1,0.275
							c-0.201,0.215-0.543,0.241-0.765,0.046l-0.012-0.01c-0.095-0.089-0.104-0.182-0.12-0.274c0.01-0.094,0.012-0.187,0.1-0.282
							c0.2-0.217,0.542-0.226,0.763-0.033L152.737,291.241z"/>
					</g>
				</g>
			</g>
			<g>
				<g>
					<g>
						<path style="fill:#FFFFFF;" d="M579.172,310.774c0.048,0.209,0.012,0.4-0.017,0.593c-0.052,0.188-0.108,0.374-0.242,0.541
							c-0.157,0.194-0.431,0.22-0.613,0.061c-0.075-0.065-0.123-0.152-0.143-0.244c-0.045-0.207-0.001-0.392,0.025-0.581
							c0.053-0.183,0.099-0.367,0.229-0.534c0.151-0.194,0.425-0.232,0.611-0.081C579.101,310.594,579.151,310.681,579.172,310.774z
							"/>
					</g>
					<g>
						<path style="fill:#FFFFFF;" d="M578.658,312.922c0.038,0.21-0.006,0.4-0.044,0.59c-0.062,0.184-0.124,0.368-0.264,0.529
							c-0.164,0.187-0.439,0.202-0.615,0.036c-0.073-0.068-0.117-0.157-0.133-0.25c-0.036-0.209,0.014-0.393,0.05-0.58
							c0.062-0.181,0.116-0.363,0.253-0.524c0.159-0.187,0.435-0.212,0.614-0.051C578.594,312.739,578.641,312.828,578.658,312.922z
							"/>
					</g>
					<g>
						<path style="fill:#FFFFFF;" d="M578.055,315.042c0.031,0.211-0.021,0.398-0.065,0.588c-0.07,0.181-0.136,0.363-0.282,0.519
							c-0.17,0.181-0.445,0.187-0.616,0.016c-0.07-0.071-0.112-0.161-0.124-0.254c-0.029-0.21,0.026-0.393,0.07-0.579
							c0.068-0.179,0.129-0.359,0.272-0.516c0.166-0.182,0.442-0.196,0.615-0.029C577.998,314.858,578.041,314.948,578.055,315.042z
							"/>
					</g>
					<g>
						<path style="fill:#FFFFFF;" d="M576.821,318.75c0.019,0.212-0.041,0.396-0.095,0.582c-0.077,0.178-0.152,0.356-0.305,0.505
							c-0.179,0.173-0.454,0.166-0.616-0.013c-0.067-0.074-0.104-0.166-0.112-0.26c-0.019-0.211,0.045-0.392,0.097-0.576
							c0.078-0.175,0.148-0.353,0.299-0.502c0.176-0.173,0.45-0.173,0.616,0.003C576.774,318.563,576.812,318.655,576.821,318.75z"
							/>
					</g>
					<g>
						<path style="fill:#FFFFFF;" d="M575.838,321.349c0.042,0.142,0.004,0.253-0.027,0.366c-0.055,0.104-0.104,0.21-0.233,0.284
							c-0.248,0.142-0.553,0.052-0.683-0.198c-0.015-0.029-0.028-0.063-0.037-0.093c-0.042-0.141-0.003-0.25,0.028-0.362
							c0.055-0.102,0.103-0.207,0.23-0.281c0.245-0.142,0.552-0.059,0.684,0.19C575.815,321.284,575.829,321.318,575.838,321.349z"
							/>
					</g>
					<g>
						<path style="fill:#FFFFFF;" d="M574.925,323.516c0.037,0.143-0.003,0.253-0.038,0.365c-0.059,0.102-0.11,0.207-0.242,0.278
							c-0.253,0.136-0.554,0.032-0.676-0.221c-0.014-0.03-0.026-0.063-0.035-0.094c-0.037-0.142,0.004-0.25,0.038-0.36
							c0.058-0.1,0.108-0.204,0.238-0.274c0.248-0.135,0.552-0.044,0.678,0.209C574.904,323.45,574.916,323.484,574.925,323.516z"/>
					</g>
				</g>
				<g>
					<g>
						<path style="fill:#FFFFFF;" d="M568.063,301.633c1.4-0.837,2.871-1.604,4.492-2.039c1.582-0.445,3.461-0.555,5.039,0.373
							c0.788,0.475,1.359,1.253,1.673,2.064c0.315,0.817,0.449,1.661,0.518,2.495c0.083,1.671-0.121,3.31-0.441,4.908
							c-0.048,0.221-0.256,0.363-0.466,0.317c-0.203-0.044-0.333-0.244-0.299-0.452c0.235-1.574,0.368-3.163,0.263-4.706
							c-0.123-1.508-0.564-3.093-1.767-3.776c-1.2-0.732-2.806-0.713-4.28-0.309c-1.498,0.371-2.944,1.053-4.343,1.798
							c-0.192,0.107-0.433,0.042-0.538-0.145C567.812,301.981,567.88,301.748,568.063,301.633z"/>
					</g>
					<g>
						<path style="fill:#FFFFFF;" d="M567.452,302.803c-0.088,0.163-0.22,0.253-0.348,0.349c-0.143,0.073-0.278,0.16-0.462,0.172
							c-0.253,0.018-0.471-0.169-0.481-0.421c-0.003-0.08,0.016-0.159,0.051-0.227c0.087-0.167,0.219-0.265,0.352-0.362
							c0.146-0.077,0.289-0.16,0.476-0.171c0.258-0.015,0.465,0.181,0.468,0.433C567.509,302.657,567.488,302.735,567.452,302.803z"
							/>
					</g>
					<g>
						<path style="fill:#FFFFFF;" d="M565.924,303.811c-0.08,0.167-0.208,0.264-0.332,0.366c-0.14,0.08-0.271,0.172-0.455,0.193
							c-0.253,0.029-0.478-0.149-0.498-0.4c-0.007-0.08,0.009-0.159,0.041-0.229c0.079-0.17,0.207-0.273,0.335-0.376
							c0.142-0.083,0.28-0.173,0.466-0.192c0.256-0.027,0.473,0.158,0.488,0.409C565.974,303.662,565.956,303.742,565.924,303.811z"
							/>
					</g>
					<g>
						<path style="fill:#FFFFFF;" d="M564.438,304.886c-0.466,0.466-0.976,0.871-1.474,1.293c-0.516,0.399-1.017,0.817-1.573,1.173
							c-0.188,0.122-0.435,0.074-0.552-0.109c-0.096-0.15-0.073-0.346,0.044-0.479c0.443-0.5,0.945-0.934,1.453-1.36
							c0.522-0.409,1.05-0.813,1.634-1.14c0.198-0.112,0.442-0.045,0.544,0.147C564.598,304.569,564.562,304.762,564.438,304.886z"
							/>
					</g>
					<g>
						<path style="fill:#FFFFFF;" d="M560.148,308.457c-0.011,0.133-0.079,0.203-0.142,0.278c-0.081,0.056-0.156,0.118-0.289,0.117
							c-0.304-0.002-0.543-0.248-0.529-0.554l0.001-0.016c0.01-0.134,0.079-0.205,0.143-0.281c0.082-0.057,0.159-0.119,0.293-0.118
							c0.306,0.002,0.538,0.253,0.524,0.556L560.148,308.457z"/>
					</g>
					<g>
						<path style="fill:#FFFFFF;" d="M558.73,309.815c-0.006,0.133-0.071,0.205-0.132,0.282c-0.078,0.059-0.151,0.123-0.283,0.126
							c-0.302,0.008-0.554-0.225-0.55-0.534l0-0.016c0.006-0.135,0.073-0.208,0.134-0.288c0.08-0.06,0.155-0.125,0.289-0.129
							c0.307-0.008,0.547,0.236,0.542,0.539L558.73,309.815z"/>
					</g>
				</g>
			</g>
		</g>
		<g>
			<path style="fill:#FFD25A;" d="M368.968,249.706c-59.888-0.942-220.053,48.635-239.592,0
				c-16.102-40.08,44.106-37.008,47.607-70.193c3.501-33.186-12.175-47.32,12.815-62.684c24.99-15.364,65.715,5.967,92.609-15.364
				c26.894-21.331,40.931-36.873,101.472-44.248c60.541-7.375,105.347,60.84,131.251,67.601
				c25.904,6.76,63.009-10.447,81.211,10.447c18.203,20.895-40.606,67.135-28.004,86.419c12.602,19.284,43.459,29.731,31.531,56.771
				C587.94,305.496,427.262,250.623,368.968,249.706z"/>
			<g>
				<g>
					<g>
						<path style="fill:#FFFFFF;" d="M129.951,231.147c-0.007-0.272,0.065-0.519,0.152-0.76c0.106-0.233,0.206-0.47,0.384-0.673
							c0.204-0.237,0.501-0.235,0.636-0.021c0.055,0.088,0.085,0.203,0.082,0.32c-0.006,0.264-0.09,0.493-0.168,0.725
							c-0.108,0.221-0.187,0.452-0.349,0.656c-0.189,0.237-0.474,0.274-0.634,0.071
							C129.988,231.382,129.954,231.268,129.951,231.147z"/>
					</g>
					<g>
						<path style="fill:#FFFFFF;" d="M131.052,228.463c0.027-0.271,0.149-0.496,0.255-0.729c0.134-0.218,0.248-0.448,0.462-0.619
							c0.244-0.202,0.528-0.17,0.64,0.062c0.046,0.095,0.056,0.21,0.035,0.324c-0.051,0.255-0.149,0.48-0.256,0.701
							c-0.124,0.212-0.251,0.422-0.437,0.604c-0.215,0.212-0.501,0.213-0.634-0.01C131.061,228.702,131.041,228.584,131.052,228.463
							z"/>
					</g>
					<g>
						<path style="fill:#FFFFFF;" d="M132.483,225.944c0.064-0.262,0.2-0.478,0.33-0.698c0.154-0.203,0.313-0.404,0.535-0.557
							c0.26-0.177,0.537-0.115,0.624,0.129c0.036,0.101,0.035,0.217,0.003,0.33c-0.07,0.254-0.214,0.453-0.341,0.663
							c-0.146,0.198-0.286,0.399-0.498,0.555c-0.246,0.181-0.534,0.145-0.636-0.09C132.458,226.178,132.455,226.061,132.483,225.944
							z"/>
					</g>
					<g>
						<path style="fill:#FFFFFF;" d="M135.656,221.915c0.105-0.249,0.284-0.431,0.451-0.623c0.185-0.174,0.371-0.349,0.619-0.457
							c0.287-0.128,0.55-0.019,0.594,0.236c0.018,0.105-0.004,0.219-0.055,0.324c-0.117,0.235-0.288,0.411-0.45,0.598
							c-0.181,0.168-0.361,0.335-0.594,0.455c-0.271,0.139-0.544,0.052-0.604-0.2C135.592,222.144,135.608,222.027,135.656,221.915z
							"/>
					</g>
					<g>
						<path style="fill:#FFFFFF;" d="M138.305,219.411c0.057-0.17,0.172-0.272,0.283-0.378c0.127-0.087,0.25-0.18,0.426-0.204
							c0.341-0.045,0.568,0.182,0.514,0.495c-0.007,0.037-0.017,0.077-0.03,0.113c-0.059,0.166-0.171,0.264-0.278,0.367
							c-0.124,0.083-0.243,0.173-0.414,0.201c-0.331,0.053-0.573-0.156-0.529-0.476
							C138.281,219.491,138.292,219.449,138.305,219.411z"/>
					</g>
					<g>
						<path style="fill:#FFFFFF;" d="M140.77,217.557c0.076-0.161,0.2-0.253,0.323-0.348c0.135-0.074,0.27-0.153,0.45-0.158
							c0.352-0.008,0.538,0.251,0.451,0.553c-0.01,0.036-0.025,0.073-0.042,0.108c-0.077,0.156-0.197,0.238-0.314,0.331
							c-0.131,0.069-0.256,0.148-0.43,0.156c-0.335,0.016-0.555-0.214-0.479-0.528C140.739,217.633,140.754,217.593,140.77,217.557z
							"/>
					</g>
				</g>
				<g>
					<g>
						<path style="fill:#FFFFFF;" d="M136.466,256.497c-0.73-0.773-1.337-1.651-2.009-2.478c-0.574-0.894-1.165-1.782-1.702-2.699
							c-0.472-0.952-0.977-1.89-1.421-2.855l-1.173-2.964c-0.679-2.023-1.129-4.134-1.261-6.273
							c-0.135-2.138,0.081-4.299,0.644-6.36c0.08-0.286,0.311-0.464,0.516-0.399c0.198,0.063,0.302,0.322,0.239,0.586
							c-0.464,2.003-0.612,4.069-0.454,6.112c0.144,2.045,0.59,4.065,1.26,6.011l1.119,2.897c0.425,0.942,0.909,1.857,1.359,2.788
							c0.509,0.897,1.065,1.769,1.598,2.655c0.63,0.816,1.191,1.692,1.872,2.469c0.189,0.214,0.209,0.5,0.045,0.639
							C136.939,256.759,136.661,256.7,136.466,256.497z"/>
					</g>
					<g>
						<path style="fill:#FFFFFF;" d="M137.962,257.112c0.209,0.088,0.345,0.244,0.505,0.377c0.145,0.149,0.294,0.292,0.385,0.498
							c0.126,0.284,0.013,0.555-0.26,0.597c-0.087,0.013-0.182,0.001-0.273-0.031c-0.221-0.078-0.385-0.219-0.553-0.355
							c-0.148-0.156-0.281-0.327-0.364-0.546c-0.11-0.305,0.025-0.565,0.295-0.588C137.785,257.056,137.877,257.075,137.962,257.112
							z"/>
					</g>
					<g>
						<path style="fill:#FFFFFF;" d="M139.684,258.742c0.217,0.067,0.361,0.217,0.54,0.325c0.157,0.136,0.318,0.266,0.427,0.464
							c0.15,0.273,0.062,0.553-0.205,0.619c-0.085,0.021-0.181,0.017-0.274-0.007c-0.227-0.058-0.402-0.185-0.581-0.306
							c-0.169-0.134-0.312-0.298-0.415-0.507c-0.137-0.294-0.025-0.565,0.241-0.612
							C139.502,258.703,139.595,258.713,139.684,258.742z"/>
					</g>
					<g>
						<path style="fill:#FFFFFF;" d="M141.543,260.213c0.741,0.43,1.46,0.847,2.185,1.268c0.731,0.41,1.456,0.815,2.203,1.234
							c0.247,0.147,0.352,0.413,0.231,0.594c-0.1,0.148-0.326,0.19-0.546,0.117c-0.841-0.255-1.613-0.669-2.384-1.08
							c-0.748-0.447-1.479-0.934-2.142-1.501c-0.218-0.205-0.261-0.489-0.1-0.635C141.124,260.09,141.351,260.097,141.543,260.213z"
							/>
					</g>
					<g>
						<path style="fill:#FFFFFF;" d="M147.923,263.504c0.149-0.049,0.269-0.017,0.392,0.008c0.115,0.05,0.232,0.092,0.326,0.217
							c0.213,0.285,0.131,0.619-0.206,0.739l-0.018,0.006c-0.15,0.049-0.277,0.015-0.405-0.012c-0.12-0.052-0.243-0.096-0.338-0.221
							c-0.215-0.291-0.102-0.616,0.228-0.729L147.923,263.504z"/>
					</g>
					<g>
						<path style="fill:#FFFFFF;" d="M150.363,264.146c0.14-0.065,0.262-0.043,0.385-0.035c0.119,0.032,0.238,0.056,0.346,0.166
							c0.238,0.243,0.241,0.588-0.092,0.761l-0.017,0.009c-0.143,0.07-0.277,0.054-0.41,0.046c-0.128-0.036-0.255-0.07-0.366-0.185
							c-0.252-0.263-0.178-0.597,0.134-0.753L150.363,264.146z"/>
					</g>
				</g>
			</g>
			<path style="fill:#FFBE57;" d="M371.059,88.268c-28.054,4.56-49.874,17.329-65.46,38.307
				c-14.547,19.154-11.429,43.78,1.039,62.933c11.43,18.242,33.249,24.626,54.03,29.187c58.186,13.681,111.177,31.011,166.246,48.34
				c23.898,7.297,51.952,18.242,72.733,1.824c0.011-0.008,0.021-0.017,0.032-0.025c2.035-1.613,2.908-4.071,2.423-6.439
				c-3.308-16.143-24.007-25.779-33.766-40.711c-12.602-19.284,46.206-65.524,28.004-86.419
				c-18.202-20.895-55.308-3.687-81.211-10.447c-3.071-0.801-6.411-2.474-10.007-4.775
				C458.776,109.759,422.165,80.352,371.059,88.268z"/>
			<path style="fill:none;stroke:#FFFFFF;stroke-width:0.9735;stroke-miterlimit:10;" d="M577.355,281.378
				c-24.48,0-66.518-9.394-107.171-18.479c-40.01-8.941-77.802-17.386-101.123-17.753c-0.593-0.009-1.206-0.014-1.818-0.014
				c-19.178,0-47.419,4.593-77.32,9.456c-34.48,5.608-73.559,11.964-103.886,11.965c-29.865,0-46.796-6.007-51.761-18.364
				c-7.67-19.09,3.645-25.905,19.306-35.336c12.564-7.566,26.805-16.143,28.574-32.92c1.251-11.854,0.135-21.464-0.762-29.186
				c-1.674-14.407-2.514-21.639,11.385-30.183c5.988-3.682,13.434-5.252,24.898-5.252c4.371,0,8.827,0.215,13.545,0.443
				c4.776,0.231,9.714,0.469,14.621,0.469c11.968,0,27.335-1.293,40.047-11.375c2.474-1.962,4.839-3.875,7.142-5.738
				c22.16-17.923,38.171-30.873,91.562-37.376c2.797-0.341,5.64-0.514,8.452-0.514c33.912,0,62.734,24.556,85.893,44.286
				c13.824,11.778,24.743,21.081,34.709,23.682c4.83,1.26,10.349,1.873,16.874,1.873c6.081,0,12.36-0.521,18.433-1.025
				c6.047-0.502,11.757-0.976,17.247-0.976c12.753,0,20.532,2.684,26.012,8.974c7.528,8.642-4.004,26.187-14.179,41.666
				c-11.121,16.918-21.625,32.897-14.205,44.252c4.289,6.564,10.339,12.008,16.189,17.273c12.278,11.05,21.976,19.777,15.003,35.582
				C593.724,279.755,587.448,281.378,577.355,281.378z"/>
		</g>
		<g>
			<path style="fill:#764582;" d="M538.978,330.846H226.209c-2.129,0-3.855-1.726-3.855-3.855V157.736
				c0-2.129,1.726-3.855,3.855-3.855h312.768c2.129,0,3.855,1.726,3.855,3.855v169.255
				C542.833,329.12,541.107,330.846,538.978,330.846z"/>
			<path style="fill:#9D68AA;" d="M533.373,324.167H220.605c-2.129,0-3.855-1.726-3.855-3.855V151.057
				c0-2.129,1.726-3.855,3.855-3.855h312.768c2.129,0,3.855,1.726,3.855,3.855v169.255
				C537.228,322.441,535.502,324.167,533.373,324.167z"/>
			<g>
				<path style="fill:#FFFFFF;stroke:#764582;stroke-width:0.9736;stroke-miterlimit:10;" d="M529.5,317.487H213.269
					c-1.173,0-2.124-0.951-2.124-2.124V142.646c0-1.173,0.951-2.124,2.124-2.124H529.5c1.173,0,2.124,0.951,2.124,2.124v172.718
					C531.623,316.537,530.673,317.487,529.5,317.487z"/>
				<path style="fill-rule:evenodd;clip-rule:evenodd;fill:#764582;" d="M229.009,155.689h20.497v-1.206h-20.497V155.689z
					 M224.186,156.292h2.411v-2.411h-2.411V156.292z M229.009,162.32h20.497v-1.206h-20.497V162.32z M224.186,162.923h2.411v-2.411
					h-2.411V162.923z M229.009,168.952h20.497v-1.206h-20.497V168.952z M224.186,169.555h2.411v-2.411h-2.411V169.555z"/>
				<path style="fill-rule:evenodd;clip-rule:evenodd;fill:#FFFFFF;stroke:#764582;stroke-width:1.0244;stroke-miterlimit:10;" d="
					M300.093,268.46h-60.795c-8.346,0-15.112-6.766-15.112-15.112v-58.011c0-8.346,6.766-15.112,15.112-15.112h60.795
					c8.346,0,15.112,6.766,15.112,15.112v58.011C315.205,261.694,308.439,268.46,300.093,268.46z"/>
				<path style="fill-rule:evenodd;clip-rule:evenodd;fill:#FFFFFF;stroke:#764582;stroke-width:1.0244;stroke-miterlimit:10;" d="
					M402.332,268.46h-60.795c-8.346,0-15.112-6.766-15.112-15.112v-58.011c0-8.346,6.766-15.112,15.112-15.112h60.795
					c8.346,0,15.112,6.766,15.112,15.112v58.011C417.444,261.694,410.678,268.46,402.332,268.46z"/>
				<path style="fill-rule:evenodd;clip-rule:evenodd;fill:#FFFFFF;stroke:#764582;stroke-width:1.0244;stroke-miterlimit:10;" d="
					M504.57,268.46h-60.795c-8.346,0-15.112-6.766-15.112-15.112v-58.011c0-8.346,6.766-15.112,15.112-15.112h60.795
					c8.346,0,15.112,6.766,15.112,15.112v58.011C519.683,261.694,512.917,268.46,504.57,268.46z"/>
				<g>
					<g>
						<g>
							<path style="fill:#764582;" d="M497.409,162.904l-1.53-10.192c-0.042-0.281-0.279-0.486-0.563-0.488l-2.741-0.017
								l0.008-1.265l2.741,0.017c0.91,0.006,1.67,0.664,1.805,1.565l0.17,1.134l17.288,0.109l-1.776,8.039L497.409,162.904z
								 M497.491,154.924l0.996,6.635l13.295-0.949l1.234-5.589L497.491,154.924z"/>
						</g>
						<g>
							<path style="fill:#764582;" d="M513.047,165.303l-14.941-0.086c-0.321-0.002-0.624-0.143-0.831-0.388
								c-0.207-0.245-0.296-0.567-0.245-0.884l0.294-1.813l1.249,0.202l-0.262,1.619l14.744,0.085L513.047,165.303z"/>
						</g>
						<path style="fill:none;stroke:#764582;stroke-width:1.265;stroke-miterlimit:10;" d="M501.919,167.803
							c-0.006,0.942-0.775,1.701-1.716,1.695c-0.942-0.006-1.701-0.774-1.695-1.716c0.006-0.942,0.774-1.701,1.716-1.695
							C501.167,166.092,501.925,166.861,501.919,167.803z"/>
						<path style="fill:none;stroke:#764582;stroke-width:1.265;stroke-miterlimit:10;" d="M510.869,167.86
							c-0.006,0.942-0.774,1.701-1.716,1.695c-0.942-0.006-1.701-0.774-1.695-1.717c0.006-0.942,0.775-1.701,1.716-1.695
							C510.117,166.149,510.875,166.917,510.869,167.86z"/>
					</g>
				</g>
				
					<line style="fill:#FFFFFF;stroke:#764582;stroke-width:1.0244;stroke-linecap:round;stroke-linejoin:round;stroke-miterlimit:10;" x1="325.987" y1="274.564" x2="417.444" y2="274.564"/>
			</g>
			<g>
				<path style="opacity:0.7;fill:#A1ABAD;" d="M407.302,236.206c0,1.248-14.935,2.26-33.359,2.26
					c-18.424,0-33.359-1.012-33.359-2.26c0-1.248,14.935-2.26,33.359-2.26C392.366,233.945,407.302,234.957,407.302,236.206z"/>
				<g>
					<g>
						<path style="fill:#DD4026;" d="M347.388,212.628c0,0,0.667-1.687,6.508,0.529c3.168,1.202,7.296,4.106,15.331,0.602
							c0,0,2.448,8.124-7.791,7.413C351.197,220.463,347.388,212.628,347.388,212.628z"/>
						<path style="fill:#E2E2E2;" d="M404.338,225.701l2.371,0.625c1.347,0.715,1.276,4.3,0.165,5.408c0,0-9.577,5.599-37.622,6.074
							c-16.132-0.311-26.913-3.069-27.411-4.165c-0.498-1.096-0.543-3.546-0.444-5.278l3.041-3.544L404.338,225.701z"/>
						<path style="fill:#FD6141;" d="M347.388,212.628c0,0-3.161,3.033-3.535,5.531c-0.538,3.59-1.145,5.37-0.758,8.996
							c0,0,9.095,3.546,24.249,3.722c7.479,0.087,18.21-0.366,26.061-1.765c6.681-1.191,13.304-2.786,13.304-2.786
							c-1.929-6.755-7.766-4.247-16.084-6.88c-5.658-1.791-19.13-12.91-19.13-12.91s-3.122,2.317-3.292,3.508
							c-0.107,0.752,1.379,2.707,1.379,2.707s-0.374,6.385-6.746,6.809C356.632,219.971,347.388,212.628,347.388,212.628z"/>
						<path style="fill:none;" d="M406.709,226.325c0,0-5.025,3.406-12.373,4.831c-7.505,1.455-19.764,1.94-27.403,1.65
							c-8.444-0.321-25.536-4.443-25.536-4.443"/>
						<path style="fill:none;stroke:#EFE9DA;stroke-width:1.1573;stroke-linecap:round;stroke-miterlimit:10;" d="M369.583,212.75
							c0,0,3.228,0.01,4.372,0.41c2.692,0.941,10.483,7.159,16.319,7.897"/>
						<path style="fill:#E2E2E2;" d="M379.226,212.513l-2.602,4.203c-0.357,0.496-1.915-0.625-1.559-1.121l2.41-4.436
							C377.996,210.488,379.746,211.841,379.226,212.513z"/>
						<path style="fill:#E2E2E2;" d="M383.012,214.748l-2.736,4.457c-0.333,0.749-2.082-0.029-1.75-0.778l2.735-5.033
							C381.782,212.722,383.532,214.076,383.012,214.748z"/>
						<path style="fill:#E2E2E2;" d="M386.799,216.983l-2.769,4.479c-0.295,0.633-2.011-0.167-1.716-0.8l2.735-5.033
							C385.569,214.958,387.319,216.311,386.799,216.983z"/>
						<path style="fill:#E2E2E2;" d="M371.318,214.836c0.051-1.229,2.035-1.148,1.984,0.082l-0.787,7.467
							c0,1.078-1.132,1.078-1.132,0L371.318,214.836z"/>
						<path style="fill:none;stroke:#EFE9DA;stroke-width:1.1573;stroke-linecap:round;stroke-miterlimit:10;" d="M364.415,230.941
							c0,0,0.912-3.332,4.107-4.837c3.581-1.688,12.09,1.502,16.798-1.11c1.383-0.768,4.955-3.936,4.955-3.936"/>
						<path style="fill:none;stroke:#EFE9DA;stroke-width:1.1573;stroke-linecap:round;stroke-miterlimit:10;" d="M344.681,216.189
							c0,0,5.048,2.262,7.396,5.244c1.058,1.343,2.532,8.567,2.532,8.567"/>
					</g>
				</g>
			</g>
			<g>
				<path style="opacity:0.7;fill:#A1ABAD;" d="M302.484,236.206c0,1.248-14.935,2.26-33.359,2.26
					c-18.424,0-33.359-1.012-33.359-2.26c0-1.248,14.935-2.26,33.359-2.26C287.548,233.945,302.484,234.957,302.484,236.206z"/>
				<g>
					<g>
						<path style="fill:#DD4026;" d="M242.57,212.628c0,0,0.667-1.687,6.508,0.529c3.168,1.202,7.296,4.106,15.331,0.602
							c0,0,2.448,8.124-7.791,7.413C246.379,220.463,242.57,212.628,242.57,212.628z"/>
						<path style="fill:#E2E2E2;" d="M299.52,225.701l2.371,0.625c1.347,0.715,1.276,4.3,0.165,5.408c0,0-9.577,5.599-37.622,6.074
							c-16.132-0.311-26.913-3.069-27.411-4.165c-0.498-1.096-0.543-3.546-0.444-5.278l3.041-3.544L299.52,225.701z"/>
						<path style="fill:#FFD25A;" d="M242.57,212.628c0,0-3.161,3.033-3.535,5.531c-0.538,3.59-1.145,5.37-0.758,8.996
							c0,0,9.095,3.546,24.249,3.722c7.479,0.087,18.21-0.366,26.061-1.765c6.681-1.191,13.304-2.786,13.304-2.786
							c-1.929-6.755-7.766-4.247-16.084-6.88c-5.658-1.791-19.13-12.91-19.13-12.91s-3.122,2.317-3.292,3.508
							c-0.107,0.752,1.379,2.707,1.379,2.707s-0.374,6.385-6.746,6.809C251.814,219.971,242.57,212.628,242.57,212.628z"/>
						<path style="fill:none;" d="M301.891,226.325c0,0-5.025,3.406-12.373,4.831c-7.505,1.455-19.764,1.94-27.403,1.65
							c-8.444-0.321-25.536-4.443-25.536-4.443"/>
						<path style="fill:none;stroke:#EFE9DA;stroke-width:1.1573;stroke-miterlimit:10;" d="M264.765,212.75
							c0,0,3.228,0.01,4.372,0.41c2.692,0.941,10.483,7.159,16.319,7.897"/>
						<path style="fill:#E2E2E2;" d="M274.408,212.513l-2.602,4.203c-0.357,0.496-1.915-0.625-1.559-1.121l2.411-4.436
							C273.178,210.488,274.928,211.841,274.408,212.513z"/>
						<path style="fill:#E2E2E2;" d="M278.194,214.748l-2.736,4.457c-0.333,0.749-2.082-0.029-1.749-0.778l2.735-5.033
							C276.964,212.722,278.714,214.076,278.194,214.748z"/>
						<path style="fill:#E2E2E2;" d="M281.981,216.983l-2.769,4.479c-0.295,0.633-2.011-0.167-1.716-0.8l2.735-5.033
							C280.751,214.958,282.501,216.311,281.981,216.983z"/>
						<path style="fill:#E2E2E2;" d="M266.501,214.836c0.051-1.229,2.035-1.148,1.984,0.082l-0.787,7.467
							c0,1.078-1.132,1.078-1.132,0L266.501,214.836z"/>
						<path style="fill:none;stroke:#EFE9DA;stroke-width:1.1573;stroke-miterlimit:10;" d="M259.597,230.941
							c0,0,0.912-3.332,4.107-4.837c3.581-1.688,12.09,1.502,16.798-1.11c1.383-0.768,4.955-3.936,4.955-3.936"/>
						<path style="fill:none;stroke:#EFE9DA;stroke-width:1.1573;stroke-miterlimit:10;" d="M239.863,216.189
							c0,0,5.048,2.262,7.396,5.244c1.058,1.343,2.532,8.567,2.532,8.567"/>
					</g>
				</g>
			</g>
			<g>
				<path style="opacity:0.7;fill:#A1ABAD;" d="M507.326,236.206c0,1.248-14.935,2.26-33.359,2.26
					c-18.424,0-33.359-1.012-33.359-2.26c0-1.248,14.935-2.26,33.359-2.26C492.391,233.945,507.326,234.957,507.326,236.206z"/>
				<g>
					<g>
						<path style="fill:#3C8460;" d="M447.413,212.628c0,0,0.667-1.687,6.508,0.529c3.168,1.202,7.296,4.106,15.331,0.602
							c0,0,2.448,8.124-7.791,7.413C451.221,220.463,447.413,212.628,447.413,212.628z"/>
						<path style="fill:#E2E2E2;" d="M504.363,225.701l2.371,0.625c1.347,0.715,1.276,4.3,0.165,5.408c0,0-9.577,5.599-37.622,6.074
							c-16.132-0.311-26.913-3.069-27.411-4.165c-0.498-1.096-0.543-3.546-0.444-5.278l3.041-3.544L504.363,225.701z"/>
						<path style="fill:#71BF9D;" d="M447.413,212.628c0,0-3.161,3.033-3.535,5.531c-0.539,3.59-1.145,5.37-0.758,8.996
							c0,0,9.095,3.546,24.249,3.722c7.479,0.087,18.21-0.366,26.061-1.765c6.681-1.191,13.304-2.786,13.304-2.786
							c-1.929-6.755-7.766-4.247-16.084-6.88c-5.658-1.791-19.13-12.91-19.13-12.91s-3.122,2.317-3.292,3.508
							c-0.107,0.752,1.379,2.707,1.379,2.707s-0.374,6.385-6.746,6.809C456.656,219.971,447.413,212.628,447.413,212.628z"/>
						<path style="fill:none;" d="M506.733,226.325c0,0-5.025,3.406-12.373,4.831c-7.505,1.455-19.764,1.94-27.403,1.65
							c-8.444-0.321-25.536-4.443-25.536-4.443"/>
						<path style="fill:none;stroke:#EFE9DA;stroke-width:1.1573;stroke-miterlimit:10;" d="M469.607,212.75
							c0,0,3.228,0.01,4.372,0.41c2.692,0.941,10.483,7.159,16.319,7.897"/>
						<path style="fill:#E2E2E2;" d="M479.25,212.513l-2.602,4.203c-0.357,0.496-1.915-0.625-1.559-1.121l2.41-4.436
							C478.02,210.488,479.77,211.841,479.25,212.513z"/>
						<path style="fill:#E2E2E2;" d="M483.037,214.748l-2.736,4.457c-0.333,0.749-2.082-0.029-1.749-0.778l2.735-5.033
							C481.806,212.722,483.557,214.076,483.037,214.748z"/>
						<path style="fill:#E2E2E2;" d="M486.823,216.983l-2.769,4.479c-0.295,0.633-2.011-0.167-1.716-0.8l2.735-5.033
							C485.593,214.958,487.343,216.311,486.823,216.983z"/>
						<path style="fill:#E2E2E2;" d="M471.343,214.836c0.051-1.229,2.035-1.148,1.984,0.082l-0.787,7.467
							c0,1.078-1.132,1.078-1.132,0L471.343,214.836z"/>
						<path style="fill:none;stroke:#EFE9DA;stroke-width:1.1573;stroke-miterlimit:10;" d="M464.439,230.941
							c0,0,0.912-3.332,4.107-4.837c3.581-1.688,12.09,1.502,16.798-1.11c1.383-0.768,4.955-3.936,4.955-3.936"/>
						<path style="fill:none;stroke:#EFE9DA;stroke-width:1.1573;stroke-miterlimit:10;" d="M444.705,216.189
							c0,0,5.048,2.262,7.396,5.244c1.058,1.343,2.532,8.567,2.532,8.567"/>
					</g>
				</g>
			</g>
			<g>
				<path style="fill:#764582;" d="M336.275,196.463v0.104c0,0.518-0.128,0.74-0.426,0.74h-2.895c-0.298,0-0.426-0.222-0.426-0.74
					v-0.104c0-0.518,0.128-0.74,0.426-0.74h2.895C336.147,195.723,336.275,195.945,336.275,196.463z"/>
				<path style="fill:#764582;" d="M342.991,192.452c0,2.057-1.135,2.486-2.129,2.486c-0.993,0-2.129-0.429-2.129-2.486
					c0-2.057,1.135-2.486,2.129-2.486C341.855,189.966,342.991,190.395,342.991,192.452z M340.181,192.452
					c0,0.577,0.128,1.273,0.681,1.273c0.553,0,0.667-0.695,0.667-1.273c0-0.577-0.114-1.214-0.667-1.214
					C340.309,191.238,340.181,191.875,340.181,192.452z M346.949,190.262c0,0.044-0.028,0.118-0.071,0.207l-5.066,9.59
					c-0.142,0.266-0.326,0.414-0.625,0.414h-0.624c-0.198,0-0.298-0.089-0.298-0.192c0-0.059,0.028-0.133,0.071-0.222l5.066-9.59
					c0.142-0.267,0.326-0.415,0.625-0.415h0.624C346.851,190.055,346.949,190.144,346.949,190.262z M348.482,198.076
					c0,2.057-1.135,2.486-2.129,2.486c-0.993,0-2.129-0.429-2.129-2.486c0-2.057,1.135-2.487,2.129-2.487
					C347.347,195.589,348.482,196.018,348.482,198.076z M345.673,198.076c0,0.577,0.128,1.273,0.681,1.273
					c0.553,0,0.667-0.695,0.667-1.273c0-0.577-0.114-1.213-0.667-1.213C345.8,196.862,345.673,197.499,345.673,198.076z"/>
			</g>
			<g>
				<g>
					<path style="fill:#FD6141;" d="M396.966,244.83v0.976c1.391,0.024,3.855,0.585,3.855,1.391c0,0.366-0.537,1.293-0.781,1.293
						c-0.366,0-1.244-0.879-3.074-0.927v5.685c2.172,0.781,4.66,1.659,4.66,5.027c0,2.782-1.806,4.539-4.66,4.782v1.22
						c0,0.269-0.146,0.391-0.488,0.391s-0.488-0.122-0.488-0.391v-1.195c-2.757-0.073-4.831-1.122-4.831-1.781
						c0-0.39,0.586-1.318,0.854-1.318c0.293,0,1.61,1.269,3.977,1.342v-6.295c-2.147-0.83-4.514-1.684-4.514-4.831
						c0-2.391,1.757-4.051,4.514-4.343v-1.025c0-0.268,0.146-0.39,0.488-0.39S396.966,244.561,396.966,244.83z M393.697,250.295
						c0,1.391,1.001,2.05,2.294,2.587v-5.246C394.6,247.88,393.697,248.758,393.697,250.295z M396.966,261.251
						c1.44-0.268,2.44-1.391,2.44-2.977c0-1.537-1.098-2.269-2.44-2.855V261.251z"/>
				</g>
				<path style="fill:#FD6141;" d="M385.978,263.87H346.96c-2.172,0-3.934-1.761-3.934-3.934v-0.583
					c0-2.173,1.761-3.934,3.934-3.934h39.019c2.172,0,3.934,1.761,3.934,3.934v0.583C389.912,262.109,388.151,263.87,385.978,263.87
					z"/>
			</g>
		</g>
		<g>
			<path style="opacity:0.2;fill:#764582;" d="M670.979,447.312H79.021c-2.205,0-3.178-2.777-1.455-4.153l88.654-70.817
				c1.902-1.519,4.325-2.354,6.831-2.354h403.898c2.506,0,4.929,0.835,6.831,2.354l88.654,70.817
				C674.157,444.535,673.184,447.312,670.979,447.312z"/>
			<g>
				<path style="fill:#E4BCE8;" d="M668.711,418.356H81.289l91.087-72.76c1.846-1.474,4.197-2.285,6.629-2.285h391.99
					c2.432,0,4.784,0.811,6.629,2.285L668.711,418.356z"/>
				<polygon style="fill:#9D68AA;" points="610.481,411.849 139.519,411.849 205.826,349.818 544.174,349.818 				"/>
				<polygon style="fill:#FFFFFF;" points="604.705,411.849 145.295,411.849 209.975,352.481 540.025,352.481 				"/>
				<path style="fill:#9D68AA;" d="M654.395,437.876H95.605c-7.907,0-14.316-6.41-14.316-14.316v-5.204h587.422v5.204
					C668.711,431.467,662.301,437.876,654.395,437.876z"/>
				
					<line style="fill:none;stroke:#FFFFFF;stroke-width:0.9734;stroke-miterlimit:10;" x1="81.289" y1="425.947" x2="668.711" y2="425.947"/>
				<path style="fill:#764582;" d="M278.686,431.655h-80.352c-2.638,0-4.777-2.139-4.777-4.777v-0.708
					c0-2.638,2.139-4.777,4.777-4.777h80.352c2.638,0,4.777,2.139,4.777,4.777v0.708
					C283.463,429.516,281.324,431.655,278.686,431.655z"/>
				<path style="fill:#E4BCE8;" d="M279.222,431.655h-81.426c-2.342,0-4.241-1.899-4.241-4.24v-0.629
					c0-2.342,1.898-4.241,4.241-4.241h81.426c2.342,0,4.241,1.898,4.241,4.241v0.629
					C283.463,429.756,281.564,431.655,279.222,431.655z"/>
				<g>
					<polygon style="fill:#9D68AA;" points="567.023,361.215 600.406,390.732 618.28,390.732 618.28,388.382 567.023,358.865 					
						"/>
					<polygon style="fill:#FDEEFF;" points="567.023,358.865 600.406,388.382 618.28,388.382 581.177,358.865 					"/>
				</g>
				<ellipse style="fill:#FFFFFF;" cx="159.34" cy="372.955" rx="14.045" ry="6.114"/>
				<path style="fill:#764582;" d="M169.175,372.501c0,2.114-4.403,3.828-9.836,3.828c-5.432,0-9.836-1.714-9.836-3.828
					c0-2.114,4.404-3.828,9.836-3.828C164.772,368.674,169.175,370.387,169.175,372.501z"/>
				<path style="fill:#FFFFFF;" d="M160.505,371.636c0,0.729-1.518,1.32-3.391,1.32s-3.391-0.591-3.391-1.32
					c0-0.729,1.518-1.32,3.391-1.32S160.505,370.907,160.505,371.636z"/>
			</g>
		</g>
		<g>
			<g>
				<g>
					<g>
						<path style="fill:#E4BCE8;" d="M552.396,125.053h-323.58c-7.391,0-13.382-5.991-13.382-13.382v-1.983
							c0-7.391,5.991-13.382,13.382-13.382h323.58c7.391,0,13.382,5.991,13.382,13.382v1.983
							C565.778,119.061,559.786,125.053,552.396,125.053z"/>
						<circle style="fill:#E4BCE8;" cx="162.796" cy="110.679" r="14.373"/>
						<circle style="fill:#E4BCE8;" cx="196.302" cy="110.679" r="14.374"/>
					</g>
				</g>
				<polygon style="fill:#E4BCE8;" points="585.704,95.583 590.454,105.736 601.578,107.115 593.389,114.77 595.514,125.775 
					585.704,120.353 575.894,125.775 578.02,114.77 569.831,107.115 580.955,105.736 				"/>
				<g>
					<g>
						<path style="fill:#FFFFFF;stroke:#764582;stroke-width:0.9736;stroke-miterlimit:10;" d="M552.396,120.08h-323.58
							c-7.391,0-13.382-5.991-13.382-13.382v-1.983c0-7.391,5.991-13.382,13.382-13.382h323.58c7.391,0,13.382,5.991,13.382,13.382
							v1.983C565.778,114.089,559.786,120.08,552.396,120.08z"/>
						<g>
							<path style="fill:#A1ABAD;" d="M299.995,100.413v0.534c1.272,0.047,2.497,0.518,2.497,1.005c0,0.361-0.424,1.178-0.722,1.178
								c-0.22,0-0.722-0.44-1.774-0.471v2.857c1.351,0.55,2.983,1.178,2.983,3.266c0,2.135-1.35,3.156-2.983,3.329v0.722
								c0,0.283-0.125,0.393-0.376,0.393c-0.298,0-0.424-0.11-0.424-0.393v-0.706c-2.025-0.063-3.266-0.801-3.266-1.288
								c0-0.408,0.549-1.209,0.816-1.209c0.251,0,1.115,0.77,2.449,0.785v-3.125c-1.381-0.518-3.046-1.115-3.046-3.282
								c0-1.868,1.366-2.857,3.046-3.046v-0.549c0-0.283,0.126-0.393,0.393-0.393C299.87,100.02,299.995,100.13,299.995,100.413z
								 M298.143,103.898c0,0.612,0.439,0.974,1.052,1.272v-2.434C298.441,102.909,298.143,103.364,298.143,103.898z
								 M299.995,110.289c0.581-0.173,1.005-0.628,1.005-1.319c0-0.644-0.424-1.037-1.005-1.319V110.289z"/>
							<path style="fill:#A1ABAD;" d="M307.799,107.792v0.126c0,0.471-0.126,0.66-0.409,0.66h-3.125
								c-0.282,0-0.408-0.188-0.408-0.66v-0.126c0-0.471,0.126-0.675,0.408-0.675h3.125
								C307.673,107.117,307.799,107.321,307.799,107.792z"/>
							<path style="fill:#A1ABAD;" d="M313.703,103.521c0,2.151-1.24,2.606-2.293,2.606c-1.052,0-2.276-0.455-2.276-2.606
								c0-2.151,1.209-2.606,2.276-2.606C312.463,100.915,313.703,101.37,313.703,103.521z M310.532,103.521
								c0,0.66,0.125,1.476,0.879,1.476c0.754,0,0.895-0.816,0.895-1.476c0-0.659-0.11-1.444-0.895-1.444
								C310.657,102.077,310.532,102.862,310.532,103.521z M318.053,101.166c0,0.047-0.032,0.11-0.079,0.188l-5.7,10.331
								c-0.125,0.251-0.345,0.393-0.66,0.393h-0.471c-0.22,0-0.346-0.079-0.346-0.188c0-0.047,0.032-0.125,0.079-0.204l5.684-10.331
								c0.141-0.252,0.361-0.377,0.675-0.377h0.471C317.927,100.978,318.053,101.056,318.053,101.166z M319.701,109.519
								c0,2.167-1.24,2.607-2.293,2.607c-1.052,0-2.276-0.44-2.276-2.607c0-2.151,1.209-2.606,2.276-2.606
								C318.461,106.913,319.701,107.368,319.701,109.519z M316.529,109.519c0,0.66,0.126,1.476,0.879,1.476
								c0.754,0,0.895-0.816,0.895-1.476c0-0.643-0.11-1.444-0.895-1.444C316.655,108.075,316.529,108.876,316.529,109.519z"/>
						</g>
						<path style="fill:#A1ABAD;" d="M285.854,113.225h-28.195c-3.646,0-6.602-2.956-6.602-6.602l0,0
							c0-3.646,2.956-6.602,6.602-6.602h28.195c3.646,0,6.602,2.956,6.602,6.602l0,0C292.456,110.269,289.5,113.225,285.854,113.225
							z"/>
						
							<circle style="fill:#FFFFFF;stroke:#764582;stroke-width:0.9736;stroke-miterlimit:10;" cx="162.796" cy="105.707" r="14.373"/>
						
							<circle style="fill:#FFFFFF;stroke:#764582;stroke-width:0.9736;stroke-miterlimit:10;" cx="196.302" cy="105.707" r="14.374"/>
					</g>
				</g>
				<polygon style="fill:#FFCC5A;stroke:#764582;stroke-width:0.9736;stroke-miterlimit:10;" points="585.704,90.61 
					590.454,100.763 601.578,102.143 593.389,109.797 595.514,120.803 585.704,115.381 575.894,120.803 578.02,109.797 
					569.831,102.143 580.955,100.763 				"/>
			</g>
			<polygon style="fill:#764582;" points="164.575,96.947 155.479,105.956 164.575,115.139 166.307,113.407 158.944,105.956 
				166.307,98.679 			"/>
			<polygon style="fill:#764582;" points="194.999,115.139 204.095,106.13 194.999,96.947 193.266,98.679 200.63,106.13 
				193.266,113.407 			"/>
			<path style="fill:#764582;" d="M244.971,113.962l-5.796-5.729c0.81-1.213,1.249-2.659,1.242-4.112
				c-0.018-4.111-3.418-7.475-7.579-7.499c-1.958-0.006-3.932,0.783-5.337,2.172c-1.407,1.39-2.206,3.315-2.194,5.279
				c0.018,4.111,3.418,7.476,7.579,7.499c0.01,0,0.021,0,0.031,0c1.467,0,2.923-0.438,4.153-1.248l5.793,5.726L244.971,113.962z
				 M238.161,104.12c0.008,1.373-0.551,2.718-1.534,3.689c-0.979,0.968-2.334,1.523-3.72,1.523c-0.007,0-0.015,0-0.022,0
				c-2.921-0.017-5.309-2.375-5.322-5.257c-0.008-1.373,0.551-2.718,1.534-3.69c0.984-0.973,2.341-1.532,3.741-1.523
				C235.761,98.88,238.148,101.238,238.161,104.12z"/>
			<path style="fill-rule:evenodd;clip-rule:evenodd;fill:#9D68AA;" d="M546.311,106.043l-3.259,3.277
				c-0.386,0.388-0.386,1.017,0,1.405c0.386,0.388,1.011,0.388,1.397,0l3.259-3.277l3.259,3.277c0.386,0.388,1.011,0.388,1.397,0
				c0.386-0.388,0.386-1.017,0-1.405l-3.259-3.277l3.259-3.277c0.386-0.388,0.386-1.017,0-1.405c-0.386-0.388-1.011-0.388-1.397,0
				l-3.259,3.277l-3.259-3.277c-0.386-0.388-1.011-0.388-1.397,0c-0.386,0.388-0.386,1.017,0,1.405L546.311,106.043z
				 M547.708,116.636c-5.819,0-10.536-4.743-10.536-10.593c0-5.851,4.717-10.593,10.536-10.593c5.819,0,10.536,4.743,10.536,10.593
				C558.244,111.894,553.527,116.636,547.708,116.636z"/>
		</g>
		<g>
			<path style="fill:#FD6141;" d="M183.936,172.59c0-10.74-8.706-19.446-19.446-19.446c-10.74,0-19.446,8.706-19.446,19.446
				c0,0,0,0,0,0c0,4.465-1.34,7.385,19.446,44.701C185.361,179.807,183.918,174.891,183.936,172.59z"/>
			<path style="fill:#FFFFFF;" d="M164.489,181.644c-4.745,0-8.592-3.847-8.592-8.592c0-4.745,3.847-8.592,8.592-8.592
				c4.746,0,8.592,3.847,8.592,8.592C173.081,177.798,169.234,181.644,164.489,181.644z"/>
		</g>
		<path style="fill:#FFB072;" d="M433.057,258.44"/>
		<g>
			<g>
				<g>
					<path style="opacity:0.2;fill:#764582;" d="M320.576,372.116l-7.892,13.666c-1.602,2.774,0.583,6.12,3.998,6.12h77.584
						c3.086,0,5.268-2.779,4.298-5.475l-4.917-13.666c-0.613-1.705-2.346-2.857-4.298-2.857h-64.776
						C322.9,369.905,321.362,370.755,320.576,372.116z"/>
					<g>
						<g>
							<path style="fill:#764582;" d="M336.461,368.318c0,3.806-3.086,6.891-6.892,6.891s-6.891-3.085-6.891-6.891
								c0-3.806,3.085-6.892,6.891-6.892S336.461,364.512,336.461,368.318z"/>
							<circle style="fill:#3E2344;" cx="329.57" cy="368.318" r="4.144"/>
							<path style="fill:#FFDCAE;" d="M326.845,367.564l2.363-6.232c0.127-0.334,0.447-0.555,0.804-0.555h8.218
								c0.75,0,1.14,0.894,0.631,1.444l-7.4,7.987c-0.616,0.665-1.563,0.911-2.425,0.629l-0.74-0.242
								C327.036,370.183,326.376,368.803,326.845,367.564z"/>
							<circle style="fill:#764582;" cx="329.57" cy="368.318" r="1.587"/>
						</g>
						<g>
							<path style="fill:#764582;" d="M376.379,368.318c0,3.806,3.085,6.891,6.891,6.891c3.806,0,6.892-3.085,6.892-6.891
								c0-3.806-3.085-6.892-6.892-6.892C379.464,361.426,376.379,364.512,376.379,368.318z"/>
							<path style="fill:#3E2344;" d="M379.126,368.318c0,2.289,1.855,4.144,4.144,4.144c2.289,0,4.144-1.855,4.144-4.144
								s-1.855-4.144-4.144-4.144C380.982,364.174,379.126,366.029,379.126,368.318z"/>
							<path style="fill:#FFDCAE;" d="M385.995,367.564l-2.363-6.232c-0.127-0.334-0.447-0.555-0.804-0.555h-8.218
								c-0.75,0-1.14,0.894-0.63,1.444l7.4,7.987c0.616,0.665,1.563,0.911,2.425,0.629l0.74-0.242
								C385.804,370.183,386.464,368.803,385.995,367.564z"/>
							<circle style="fill:#764582;" cx="383.27" cy="368.318" r="1.587"/>
						</g>
						<g>
							<path style="fill:#FD6141;" d="M311.545,304.291c-0.396,0-0.772-0.23-0.938-0.616c-2.336-5.406-6.227-14.219-6.925-15.322
								c-1.044-0.759-8.909-3.561-16.033-5.872c-0.421-0.137-0.706-0.529-0.706-0.971c0-0.443,0.285-0.835,0.706-0.971l12.658-4.102
								c0.19-0.06,0.392-0.066,0.584-0.014c1.211,0.33,11.896,3.289,14.194,5.426c1.826,1.696,7.21,12.926,8.271,15.159
								c0.242,0.509,0.025,1.118-0.485,1.36c-0.512,0.241-1.119,0.025-1.36-0.485c-2.391-5.034-6.628-13.434-7.816-14.539
								c-1.422-1.322-8.629-3.649-13.049-4.871l-9.388,3.042c6.538,2.17,13.299,4.594,14.023,5.561
								c0.849,1.13,6.146,13.35,7.2,15.788c0.223,0.517-0.015,1.119-0.533,1.342C311.818,304.264,311.68,304.291,311.545,304.291z"
								/>
						</g>
						
							<polygon style="fill:#FFFFFF;stroke:#FD6141;stroke-width:1.8544;stroke-linecap:round;stroke-linejoin:round;stroke-miterlimit:10;" points="
							308.778,299.121 320.302,291.965 409.167,296.313 411.205,301.884 						"/>
						<path style="fill:#FD6141;" d="M307.937,299.303l13.448,44.354c0.403,1.329,1.647,2.223,3.036,2.18l74.388-2.301
							c1.383-0.043,2.567-1.004,2.892-2.349l9.505-39.302L307.937,299.303z"/>
						<path style="fill:#FF8976;" d="M327.939,317.855c4.806,10.001,15.439,12.017,25.562,11.515
							c21.732-1.077,40.722-9.563,53.449-27.592c0,0-79.112-1.978-79.131-1.978c-1.169-0.016-1.744,7.575-1.802,8.56
							C325.826,311.638,326.527,314.915,327.939,317.855z"/>
						<path style="fill:#FD6141;" d="M398.628,368.124c-0.908-3.633-2.78-7.268-4.134-9.107c-0.703-0.954-1.856-2.049-4.556-2.049
							H328.34c-0.97,0-2.707-0.16-3.443-1.237c-0.69-1.011-0.295-2.606,0.158-3.767c1.816-4.654,3.437-7.599,3.453-7.628
							l-2.407,0.202c-0.068,0.124-1.079,1.892-2.949,6.684c-0.918,2.354-0.898,4.259,0.059,5.661
							c0.951,1.392,2.725,2.128,5.129,2.128h3.299v1.382c0,0.857,0.695,1.552,1.552,1.552h1.18c0.857,0,1.552-0.695,1.552-1.552
							v-1.382h40.729v1.382c0,0.857,0.695,1.552,1.552,1.552h1.18c0.857,0,1.552-0.695,1.552-1.552v-1.382h9.001
							c1.859,0,2.477,0.628,2.911,1.217c1.279,1.737,2.995,5.177,3.799,8.392c0.181,0.722,0.131,1.273-0.147,1.637
							c-0.557,0.731-1.966,0.819-2.385,0.828c-14.273,0.32-45.056,0.145-61.594,0.05c-4.916-0.029-8.64-0.05-10.414-0.05
							c-2.508,0-4.374-0.718-5.256-2.021c-0.849-1.255-0.825-3.097,0.07-5.328c1.969-4.906,7.757-19.518,7.757-19.518l-1.898-0.752
							c0,0-5.785,14.607-7.753,19.51c-1.464,3.648-0.736,5.947,0.134,7.231c1.273,1.883,3.74,2.919,6.947,2.919
							c1.163,0,3.179,0.009,5.807,0.023v1.336c0,0.857,0.695,1.552,1.552,1.552h1.18c0.857,0,1.552-0.695,1.552-1.552v-1.002
							c0.12-0.122,0.185-0.187,0.305-0.309c9.425,0.055,23.472,0.135,36.465,0.135c3.527,0,6.973-0.006,10.23-0.02v1.196
							c0,0.857,0.695,1.552,1.552,1.552h1.18c0.857,0,1.552-0.695,1.552-1.552v-1.22c4.079-0.029,7.732-0.073,10.679-0.139
							c1.033-0.024,2.922-0.266,3.963-1.631C398.798,370.612,398.967,369.478,398.628,368.124z"/>
						<g>
							<path style="fill:#FFFFFF;" d="M408.227,301.054l-9.219,38.021c-0.253,1.047-1.183,1.803-2.26,1.836l-34.736,1.074
								c2.695-2.91,5.369-5.838,8.019-8.79c0.195-0.218,0.258-0.488,0.137-0.614c-0.126-0.131-0.403-0.057-0.619,0.165
								c-2.859,2.953-5.694,5.928-8.506,8.925l-0.005,0.006c-0.102,0.11-0.169,0.228-0.219,0.345l-30.665,0.948
								c2.861-3.087,5.701-6.195,8.516-9.325c0.205-0.228,0.275-0.507,0.154-0.633c-0.126-0.132-0.411-0.049-0.636,0.184
								c-2.992,3.095-5.96,6.212-8.904,9.352l-0.006,0.006c-0.135,0.145-0.221,0.304-0.27,0.452l-2.772,0.086
								c-1.067,0.041-2.059-0.667-2.373-1.704l-6.121-20.182c1.582-1.715,3.142-3.451,4.678-5.21
								c0.111-0.128,0.105-0.324-0.019-0.447c-0.129-0.128-0.336-0.129-0.463-0.002c-1.523,1.529-3.019,3.083-4.502,4.65
								l-6.575-21.68l-0.977,0.297l13.002,42.871c0.438,1.443,1.775,2.429,3.275,2.429c0.036,0,0.071,0,0.107-0.001l70.51-2.181
								c1.536-0.048,2.861-1.124,3.222-2.616l9.219-38.021L408.227,301.054z"/>
							<path style="fill:#FFFFFF;" d="M323.229,315.148c0.276-0.172,0.493-0.397,0.716-0.618c0.205-0.237,0.415-0.47,0.567-0.757
								c0.059-0.113,0.058-0.254-0.016-0.371c-0.11-0.174-0.34-0.229-0.513-0.122c-0.276,0.171-0.493,0.397-0.716,0.618
								c-0.205,0.237-0.415,0.47-0.567,0.757c-0.06,0.113-0.058,0.255,0.016,0.372C322.826,315.201,323.056,315.255,323.229,315.148
								z"/>
							<path style="fill:#FFFFFF;" d="M325.124,313.115c0.12-0.005,0.182-0.063,0.249-0.118c0.049-0.07,0.104-0.137,0.1-0.257
								c0-0.003,0-0.008,0-0.01c-0.015-0.277-0.251-0.493-0.528-0.483c-0.12,0.005-0.182,0.063-0.249,0.118
								c-0.049,0.071-0.104,0.137-0.1,0.257c0,0.003,0,0.009,0.001,0.013C324.611,312.911,324.848,313.126,325.124,313.115z"/>
							<path style="fill:#FFFFFF;" d="M333.624,303.981c2.074-2.11,4.124-4.243,6.15-6.399l0.002-0.003
								c0.171-0.185,0.158-0.476-0.031-0.65c-0.188-0.174-0.479-0.165-0.65,0.02c-2.009,2.171-3.993,4.365-5.954,6.582
								c-0.113,0.128-0.106,0.327,0.019,0.45C333.292,304.109,333.499,304.109,333.624,303.981z"/>
							<path style="fill:#FFFFFF;" d="M332.555,305.176c0.12-0.004,0.182-0.063,0.249-0.118c0.049-0.071,0.104-0.137,0.1-0.257
								c0-0.003,0-0.009-0.001-0.013c-0.015-0.276-0.252-0.491-0.528-0.48c-0.12,0.005-0.182,0.063-0.249,0.118
								c-0.049,0.07-0.104,0.136-0.1,0.257c0,0.003,0,0.007,0.001,0.01C332.041,304.97,332.277,305.186,332.555,305.176z"/>
							<path style="fill:#FFFFFF;" d="M331.426,306.386c0.12-0.004,0.182-0.063,0.249-0.118c0.049-0.071,0.103-0.137,0.1-0.257
								c0-0.003,0-0.009,0-0.013c-0.015-0.276-0.252-0.491-0.528-0.48c-0.12,0.005-0.182,0.063-0.249,0.118
								c-0.049,0.071-0.104,0.137-0.1,0.257c0,0.002,0,0.007,0,0.01C330.912,306.18,331.148,306.397,331.426,306.386z"/>
							<path style="fill:#FFFFFF;" d="M330.297,307.597c0.12-0.004,0.182-0.063,0.249-0.118c0.049-0.071,0.104-0.137,0.1-0.257
								c0-0.003,0-0.009-0.001-0.013c-0.015-0.276-0.252-0.491-0.528-0.48c-0.12,0.005-0.182,0.063-0.249,0.118
								c-0.05,0.07-0.104,0.136-0.1,0.257c0,0.003,0,0.008,0,0.01C329.783,307.391,330.02,307.607,330.297,307.597z"/>
							<path style="fill:#FFFFFF;" d="M326.423,311.751c0.534-0.448,1.009-0.95,1.489-1.447c0.463-0.514,0.93-1.023,1.34-1.586
								c0.095-0.13,0.092-0.315-0.019-0.446c-0.13-0.153-0.358-0.175-0.509-0.047c-0.533,0.448-1.009,0.95-1.489,1.447
								c-0.463,0.514-0.93,1.023-1.34,1.587c-0.095,0.13-0.091,0.315,0.019,0.445C326.043,311.857,326.271,311.879,326.423,311.751z
								"/>
							<path style="fill:#FFFFFF;" d="M339.468,332.138c0.082,0.205,0.376,0.19,0.657-0.034c0.449-0.357,0.84-0.769,1.236-1.176
								c0.378-0.423,0.762-0.842,1.086-1.315c0.127-0.186,0.183-0.388,0.128-0.526c-0.081-0.206-0.375-0.191-0.657,0.033
								c-0.449,0.357-0.84,0.769-1.236,1.176c-0.378,0.423-0.761,0.842-1.086,1.315C339.469,331.797,339.413,332,339.468,332.138z"
								/>
							<path style="fill:#FFFFFF;" d="M343.556,328.424c0.167-0.055,0.276-0.165,0.391-0.269c0.097-0.121,0.198-0.238,0.241-0.409
								c0.001-0.004,0.003-0.011,0.003-0.014c0.092-0.391-0.146-0.606-0.532-0.479c-0.167,0.055-0.277,0.165-0.391,0.269
								c-0.097,0.121-0.198,0.238-0.241,0.409c-0.001,0.005-0.003,0.013-0.004,0.018
								C342.933,328.338,343.171,328.551,343.556,328.424z"/>
							<path style="fill:#FFFFFF;" d="M358.955,311.892c3.709-3.864,7.394-7.751,11.056-11.66l0.004-0.005
								c0.311-0.334,0.409-0.746,0.221-0.919s-0.593-0.043-0.903,0.292c-3.644,3.925-7.264,7.873-10.859,11.843
								c-0.208,0.23-0.278,0.511-0.155,0.637C358.445,312.21,358.73,312.126,358.955,311.892z"/>
							<path style="fill:#FFFFFF;" d="M356.999,314.037c0.168-0.055,0.277-0.165,0.391-0.269c0.096-0.121,0.198-0.238,0.241-0.409
								c0.001-0.005,0.003-0.013,0.004-0.018c0.091-0.39-0.148-0.603-0.533-0.475c-0.167,0.055-0.276,0.165-0.391,0.269
								c-0.097,0.121-0.198,0.238-0.241,0.409c-0.001,0.004-0.003,0.011-0.003,0.014
								C356.375,313.949,356.613,314.163,356.999,314.037z"/>
							<path style="fill:#FFFFFF;" d="M354.955,316.229c0.168-0.055,0.277-0.165,0.391-0.269c0.096-0.121,0.198-0.238,0.241-0.409
								c0.001-0.005,0.003-0.013,0.004-0.018c0.091-0.39-0.148-0.603-0.533-0.475c-0.167,0.055-0.277,0.165-0.391,0.269
								c-0.097,0.121-0.198,0.238-0.241,0.409c-0.001,0.004-0.003,0.011-0.003,0.014
								C354.331,316.141,354.569,316.355,354.955,316.229z"/>
							<path style="fill:#FFFFFF;" d="M352.911,318.421c0.168-0.055,0.277-0.164,0.391-0.269c0.096-0.121,0.198-0.238,0.241-0.409
								c0.001-0.005,0.003-0.013,0.004-0.018c0.091-0.39-0.148-0.603-0.533-0.475c-0.167,0.055-0.277,0.165-0.391,0.269
								c-0.097,0.121-0.198,0.238-0.241,0.409c-0.001,0.004-0.003,0.011-0.003,0.014
								C352.287,318.333,352.525,318.547,352.911,318.421z"/>
							<path style="fill:#FFFFFF;" d="M345.896,325.943c0.916-0.857,1.773-1.77,2.636-2.677c0.845-0.924,1.694-1.843,2.486-2.816
								c0.183-0.225,0.253-0.489,0.154-0.631c-0.117-0.168-0.422-0.105-0.682,0.138c-0.915,0.858-1.773,1.77-2.636,2.677
								c-0.845,0.924-1.695,1.843-2.486,2.816c-0.183,0.225-0.253,0.488-0.154,0.631
								C345.331,326.248,345.636,326.187,345.896,325.943z"/>
							<path style="fill:#FFFFFF;" d="M371.42,331.724c0.431-0.339,0.805-0.731,1.183-1.119c0.361-0.405,0.727-0.804,1.034-1.259
								c0.12-0.178,0.17-0.375,0.114-0.51c-0.084-0.202-0.372-0.194-0.642,0.018c-0.432,0.338-0.805,0.731-1.183,1.12
								c-0.361,0.405-0.726,0.805-1.034,1.259c-0.121,0.179-0.171,0.376-0.114,0.512C370.862,331.945,371.15,331.936,371.42,331.724
								z"/>
							<path style="fill:#FFFFFF;" d="M374.697,328.21c0.162-0.05,0.267-0.154,0.376-0.254c0.092-0.116,0.189-0.227,0.227-0.393
								c0.001-0.004,0.002-0.01,0.003-0.014c0.081-0.38-0.157-0.594-0.532-0.479c-0.163,0.05-0.267,0.154-0.377,0.254
								c-0.092,0.116-0.188,0.228-0.227,0.393c-0.001,0.005-0.003,0.013-0.004,0.017
								C374.084,328.113,374.323,328.326,374.697,328.21z"/>
							<path style="fill:#FFFFFF;" d="M389.399,312.425c3.544-3.687,7.064-7.397,10.561-11.129l0.004-0.004
								c0.296-0.319,0.384-0.719,0.195-0.892c-0.188-0.173-0.581-0.055-0.878,0.264c-3.479,3.748-6.934,7.519-10.364,11.312
								c-0.198,0.22-0.261,0.493-0.138,0.618C388.907,312.724,389.184,312.648,389.399,312.425z"/>
							<path style="fill:#FFFFFF;" d="M387.532,314.474c0.163-0.05,0.267-0.154,0.377-0.254c0.092-0.116,0.188-0.228,0.227-0.393
								c0.001-0.005,0.003-0.013,0.004-0.017c0.08-0.378-0.159-0.591-0.533-0.476c-0.162,0.05-0.267,0.154-0.376,0.254
								c-0.092,0.116-0.189,0.227-0.227,0.393c-0.001,0.003-0.002,0.01-0.003,0.014C386.92,314.374,387.158,314.589,387.532,314.474
								z"/>
							<path style="fill:#FFFFFF;" d="M385.581,316.567c0.163-0.05,0.267-0.154,0.376-0.254c0.092-0.116,0.188-0.228,0.227-0.393
								c0.001-0.005,0.003-0.013,0.004-0.017c0.08-0.378-0.159-0.591-0.533-0.476c-0.162,0.05-0.267,0.155-0.376,0.254
								c-0.092,0.116-0.189,0.228-0.227,0.393c-0.001,0.003-0.002,0.01-0.003,0.014
								C384.968,316.467,385.206,316.682,385.581,316.567z"/>
							<path style="fill:#FFFFFF;" d="M383.629,318.66c0.163-0.05,0.267-0.154,0.376-0.254c0.092-0.116,0.188-0.228,0.227-0.393
								c0.001-0.005,0.003-0.013,0.004-0.017c0.08-0.378-0.159-0.591-0.533-0.476c-0.162,0.05-0.267,0.154-0.376,0.254
								c-0.092,0.116-0.189,0.227-0.227,0.393c-0.001,0.004-0.002,0.01-0.003,0.014C383.016,318.56,383.254,318.775,383.629,318.66z
								"/>
							<path style="fill:#FFFFFF;" d="M376.932,325.842c0.877-0.816,1.696-1.687,2.52-2.553c0.806-0.882,1.617-1.76,2.371-2.692
								c0.174-0.216,0.237-0.471,0.136-0.613c-0.118-0.166-0.416-0.112-0.665,0.12c-0.877,0.816-1.696,1.687-2.52,2.553
								c-0.806,0.882-1.618,1.76-2.371,2.692c-0.174,0.216-0.237,0.471-0.136,0.612
								C376.385,326.127,376.682,326.074,376.932,325.842z"/>
						</g>
						<polygon style="fill:#FF8976;" points="334.949,371.147 338.572,358.328 376.978,358.328 379.071,371.147 						"/>
						<g>
							<circle style="fill:#764582;" cx="324.965" cy="383.805" r="8.097"/>
							<path style="fill:#3E2344;" d="M329.834,383.805c0,2.689-2.18,4.869-4.869,4.869c-2.689,0-4.869-2.18-4.869-4.869
								s2.18-4.869,4.869-4.869C327.654,378.937,329.834,381.116,329.834,383.805z"/>
							<path style="fill:#FFDCAE;" d="M321.764,382.919l2.776-7.323c0.149-0.392,0.525-0.652,0.944-0.652h9.656
								c0.881,0,1.34,1.05,0.741,1.696l-8.695,9.384c-0.724,0.781-1.837,1.07-2.85,0.739l-0.869-0.284
								C321.988,385.997,321.212,384.375,321.764,382.919z"/>
							<path style="fill:#764582;" d="M326.83,383.805c0,1.03-0.835,1.865-1.865,1.865c-1.03,0-1.865-0.835-1.865-1.865
								c0-1.03,0.835-1.865,1.865-1.865C325.995,381.941,326.83,382.776,326.83,383.805z"/>
						</g>
						<g>
							<circle style="fill:#764582;" cx="386.824" cy="383.805" r="8.097"/>
							<path style="fill:#3E2344;" d="M381.955,383.805c0,2.689,2.18,4.869,4.869,4.869c2.689,0,4.869-2.18,4.869-4.869
								s-2.18-4.869-4.869-4.869C384.135,378.937,381.955,381.116,381.955,383.805z"/>
							<path style="fill:#FFDCAE;" d="M390.025,382.919l-2.776-7.323c-0.149-0.392-0.525-0.652-0.944-0.652h-9.656
								c-0.881,0-1.34,1.05-0.741,1.696l8.695,9.384c0.724,0.781,1.837,1.07,2.849,0.739l0.87-0.284
								C389.801,385.997,390.577,384.375,390.025,382.919z"/>
							<path style="fill:#764582;" d="M384.959,383.805c0,1.03,0.835,1.865,1.865,1.865c1.03,0,1.865-0.835,1.865-1.865
								c0-1.03-0.835-1.865-1.865-1.865C385.794,381.941,384.959,382.776,384.959,383.805z"/>
						</g>
					</g>
					<g>
						
							<ellipse transform="matrix(0.228 -0.9737 0.9737 0.228 24.6549 627.6399)" style="fill:#FFD25A;" cx="408.108" cy="298.273" rx="18.321" ry="18.321"/>
						<g>
							<path style="fill:#764582;" d="M411.509,288.514v16.162h3.071c0.603,0,0.862,0.43,0.862,1.435v0.488
								c0,1.004-0.259,1.435-0.862,1.435h-11.138c-0.603,0-0.861-0.431-0.861-1.435v-0.488c0-1.005,0.258-1.435,0.861-1.435h3.818
								v-12.889l-3.904,0.574c-0.747,0-0.919-1.607-0.919-2.411c0-0.431,0.258-0.718,0.746-0.804l7.148-1.32
								C410.792,287.825,411.509,288.169,411.509,288.514z"/>
						</g>
					</g>
				</g>
				<g>
					<polygon style="fill:#FFBE57;" points="334.709,284.48 334.709,298.912 368.79,299.8 368.79,283.002 					"/>
					<polygon style="fill:#F99441;" points="368.79,283.002 368.79,299.8 385.033,300.319 385.033,285.938 					"/>
					<polygon style="fill:#FFD25A;" points="333.714,281.749 369.583,280.286 369.583,284.976 333.714,286.469 					"/>
					<polygon style="fill:#FFBE57;" points="369.583,284.976 386.214,287.825 386.214,283.377 369.583,280.286 					"/>
				</g>
			</g>
			<g>
				<ellipse style="opacity:0.2;fill:#764582;" cx="255.929" cy="383.67" rx="49.29" ry="2.836"/>
			</g>
			<g>
				<g>
					<g>
						<path style="fill:#FFB072;" d="M279.731,351.13c0.796,7.923,7.455,19.515,10.04,25.981c0.761,1.904,4.366,0.84,3.959-1.17
							c-1.388-6.848-2.341-20.715-2.975-27.788C290.008,339.825,278.973,343.589,279.731,351.13z"/>
						<g>
							<defs>
								<path id="SVGID_1_" d="M289.87,377.082c0,0-0.77,2.175,0.543,5.11c-0.238,0.107-0.058,1.083,0.37,1.29
									c0.505,0.244,4.158,0.184,4.9-0.395c0.163-0.277-0.025-0.656-0.025-0.656s0.914,0.347,3.513-0.144
									c2.599-0.491,3.993-1.243,5.003-1.883c0.306-0.194,0.094-0.887-0.251-0.775c0,0-0.223-1.804-1.732-1.706
									c-3.092,0.2-5.308-1.059-6.89-2.014c-0.783-0.473-1.571-0.868-2.056-0.893C292.001,374.948,290.384,375.681,289.87,377.082z
									"/>
							</defs>
							<use xlink:href="#SVGID_1_"  style="overflow:visible;fill:#ED0C37;"/>
							<clipPath id="SVGID_00000090265861784868250690000016747146621667544962_">
								<use xlink:href="#SVGID_1_"  style="overflow:visible;"/>
							</clipPath>
							<path style="clip-path:url(#SVGID_00000090265861784868250690000016747146621667544962_);fill:#FFAEC1;" d="M290.413,382.192
								c2.195,0.252,5.257-0.082,5.257-0.082s5.922-0.103,8.254-2.481c2.332-2.378,4.349,0.155,4.349,0.155l-9.693,7.719
								l-6.331-0.495l-2.828-2.386C289.42,384.621,289.187,382.051,290.413,382.192z"/>
							<path style="clip-path:url(#SVGID_00000090265861784868250690000016747146621667544962_);fill:#FFB072;" d="M289.404,377.254
								c0,0,0.85,1.481,2.593,1.111c1.743-0.369,1.92-1.44,1.525-3.304C293.127,373.197,287.573,374.428,289.404,377.254z"/>
						</g>
					</g>
					<g>
						<path style="fill:#552F5E;" d="M253.812,294.431c0,0,11.388,20.487,15.151,28.86s8.523,29.05,8.523,29.05
							s9.364,1.97,14.271-2.423c0,0-1.572-21.817-4.245-31.615c-2.672-9.798-12.827-33.849-12.827-33.849
							C270.607,275.82,249.734,285.797,253.812,294.431z"/>
						<path style="fill:#3E2344;" d="M263.129,310.458c0.132-0.132,0.91-3.737,3.217-7.773c2.008-3.513,6.855-6.271,7.387-5.843
							c0.915,0.736-6.318,6.107-7.718,9.985c0,0,8.051-5.857,8.611-5.085C275.149,302.464,266.297,307.296,263.129,310.458z"/>
					</g>
				</g>
				<g>
					<path style="fill:#DD4026;" d="M261.928,243.932c1.88,8.66,4.796,20.198,11.223,25.831c6.427,5.633,20.381,8.759,21.045,8.759
						c1.554,0.358,3.219-7.844,1.988-8.792c-1.232-0.948-12.208-5.38-14.157-7.259c-3.483-3.359-1.999-23.817-5.943-28.281
						C272.14,229.726,259.737,233.839,261.928,243.932z"/>
					<path style="fill:#F29353;" d="M297.007,271.208c0,0,4.892,4.065,5.183,5.172c0.291,1.107,0.173,2.931-0.227,3.394
						c-0.4,0.463-3.389,1.96-4.53,1.176c-1.142-0.784-2.715-2.572-2.715-2.572l0.539-2c0,0-0.368,1.371-3.331-0.488
						C288.962,274.032,294.192,268.399,297.007,271.208z"/>
				</g>
				<g>
					<g>
						<path style="fill:#FFB072;" d="M228.833,345.249c-5.901,5.348-11.27,17.59-14.936,23.51c-1.08,1.744,1.918,4.011,3.293,2.489
							c4.684-5.184,15.273-14.189,20.587-18.901C244.032,346.801,234.449,340.16,228.833,345.249z"/>
						<g>
							<defs>
								<path id="SVGID_00000106841820721791209430000013979585647698645170_" d="M214.557,368.163c0,0-2.244,0.54-3.988,3.241
									c-0.219-0.141-0.94,0.542-0.88,1.014c0.071,0.557,2.113,3.587,3.003,3.893c0.321-0.015,0.536-0.378,0.536-0.378
									s0.208,0.956,2.036,2.867c1.828,1.911,3.219,2.669,4.306,3.167c0.329,0.151,0.795-0.405,0.513-0.633
									c0,0,1.391-1.17,0.486-2.382c-1.853-2.483-2.006-5.027-2.067-6.875c-0.03-0.914-0.129-1.79-0.372-2.21
									C217.507,368.786,216.012,367.831,214.557,368.163z"/>
							</defs>
							<use xlink:href="#SVGID_00000106841820721791209430000013979585647698645170_"  style="overflow:visible;fill:#ED0C37;"/>
							<clipPath id="SVGID_00000149353330436599286570000007050872680811066548_">
								<use xlink:href="#SVGID_00000106841820721791209430000013979585647698645170_"  style="overflow:visible;"/>
							</clipPath>
							<path style="clip-path:url(#SVGID_00000149353330436599286570000007050872680811066548_);fill:#FFAEC1;" d="M210.569,371.404
								c0.985,1.977,2.935,4.362,2.935,4.362s3.315,4.909,6.579,5.568c3.264,0.659,2.241,3.73,2.241,3.73l-11.755-3.918
								l-3.036-5.578l0.459-3.671C207.991,371.896,210.019,370.299,210.569,371.404z"/>
							<path style="clip-path:url(#SVGID_00000149353330436599286570000007050872680811066548_);fill:#FFB072;" d="M214.159,367.866
								c0,0-0.778,1.519,0.482,2.779c1.26,1.26,2.254,0.824,3.601-0.523C219.589,368.776,215.53,364.79,214.159,367.866z"/>
						</g>
					</g>
					<g>
						<path style="fill:#764582;" d="M241.751,286.746c0,0,1.578,30.041-1.794,37.908c-3.372,7.867-12.133,20.674-12.133,20.674
							s2.403,7.455,11.287,8.524c0,0,13.396-9.435,18.652-23.725c5.256-14.29,9.662-30.018,7.534-41.67
							C264.101,281.913,243.442,277.174,241.751,286.746z"/>
						<path style="fill:none;stroke:#FFFFFF;stroke-width:0.4986;stroke-miterlimit:10;" d="M245.666,286.469
							c0,0,0.191,25.014-0.976,34.693c-1.133,9.393-15.569,26.68-15.569,26.68"/>
					</g>
				</g>
				<g>
					<g>
						<path style="fill:#FFFFFF;" d="M275.38,234.875c2.314,4.604-1.815,22.082-1.815,29.716c0,6.209,1.019,16.591,1.939,20.509
							c0.245,1.044-0.221,2.116-1.145,2.66c-3.571,2.101-8.327,3.205-11.261,3.487c-11.307,1.088-16.769-0.893-19.339-1.867
							c-1.387-0.526-2.218-1.936-1.999-3.403c0.571-3.818,2.181-13.158,0.802-21.75c-1.805-11.244-4.749-26.537,0.525-31.256
							c5.275-4.719,15.152-7.658,15.152-7.658S272.521,229.189,275.38,234.875z"/>
						<g>
							<path style="fill:#3E2344;" d="M260.627,220.527c0,0-2.536-0.423-6.015-4.745c-2.28-2.833-5.452-15.652,4.603-17.592
								c10.054-1.94,13.015,4.856,13.474,9.3c0.459,4.444-4.528,8.106-6.786,9.71C263.646,218.803,260.627,220.527,260.627,220.527z
								"/>
							<path style="fill:#FFB072;" d="M258.177,215.363c0,0-0.306,3.883-1.452,6.912c-1.146,3.029-2.375,3.96-3.822,5.247
								c-1.447,1.287,5.777,8.96,12.208,10.906c0,0,4.664-5.682,2.525-8.849c-2.139-3.167-3.833-3.446-3.067-7.675
								c0.668-3.686,1.066-5.73,1.066-5.73L258.177,215.363z"/>
							<g>
								<g>
									<g>
										<path style="fill-rule:evenodd;clip-rule:evenodd;fill:#FFB072;" d="M258.177,215.363c0,0-0.324,2.87,0.833,4.101
											c1.157,1.23,3.228,4.201,7.949,3.856c6.306-0.461,3.857-10.469,3.857-10.469s0.658-3.85-0.001-7.012
											c-0.659-3.163-6.903-4.819-11.987-3.271c0,0-1.46,1.389-0.9,7.604c0,0-0.938-1.128-2.413-0.325
											c-1.119,0.61-1.237,2.054-0.857,3.415C255.113,214.896,256.816,216.303,258.177,215.363z"/>
									</g>
									<path style="fill:#E57E55;" d="M257.651,214.762l-0.555-1.477l0.947-0.393c0,0-0.615-2.761-2.154-1.743
										C254.624,211.986,256.07,215.324,257.651,214.762z"/>
								</g>
								<path style="fill:#3E2344;" d="M258.321,212.563c0,0-0.621,3.882-0.527,5.614c0.094,1.732,1.802,7.124,9.699,6.643
									c7.843-0.478,5.034-8.978,3.706-9.561c0.05,0.566-0.231,1.476-0.782,1.875c-0.318-0.794-1.244-1.36-2.529-1.089
									c-1.123-0.635-2.411-0.241-3.766,0.567l-0.976,0.684c-2.441-0.602-3.706-2.206-4.014-4.628L258.321,212.563z"/>
								<g>
									<path style="fill:#FFFFFF;" d="M265.113,217.444c0,0,4.146,0,4.245,0.282c0.099,0.282-0.493,0.845-2.122,0.845
										C265.606,218.571,265.113,217.444,265.113,217.444z"/>
									<path style="fill:#E57E55;" d="M264.997,217.368c0.218-0.117,0.198-0.035,0.261-0.058l0.145,0.005l0.29,0.011l0.58,0.026
										l1.161,0.045c0.387,0.02,0.774,0.042,1.161,0.082c0.194,0.021,0.387,0.044,0.583,0.088
										c0.052,0.017,0.098,0.026,0.154,0.052c0.082,0.046,0.114,0.118,0.102,0.181c-0.01,0.128-0.082,0.22-0.153,0.295
										c-0.647,0.534-1.49,0.558-2.261,0.557c-0.396-0.019-0.797-0.113-1.152-0.309c-0.179-0.094-0.349-0.209-0.498-0.35
										c-0.074-0.071-0.145-0.145-0.209-0.226l-0.092-0.126l-0.043-0.067l-0.02-0.035l-0.01-0.018
										C264.998,217.544,264.956,217.406,264.997,217.368z M265.228,217.519c0.047-0.027,0.009-0.154,0.016-0.12l0.007,0.014
										l0.014,0.028l0.032,0.057l0.072,0.113c0.052,0.074,0.11,0.143,0.172,0.21c0.124,0.133,0.271,0.246,0.429,0.341
										c0.319,0.187,0.689,0.282,1.063,0.308c0.736,0.023,1.582-0.007,2.156-0.47c0.373-0.368-0.28-0.306-0.606-0.367
										c-0.383-0.032-0.769-0.045-1.154-0.057l-1.158-0.019l-0.579,0.009l-0.289,0.006l-0.145,0.004
										C265.223,217.555,265.107,217.636,265.228,217.519z"/>
								</g>
								<g>
									<path style="fill:#3E2344;" d="M265.654,212.322c-0.029,0.35-0.489,0.375-1.049,0.328c-0.561-0.047-1.01-0.148-0.98-0.498
										c0.029-0.35,0.507-0.596,1.068-0.549C265.253,211.65,265.684,211.972,265.654,212.322z"/>
									<path style="fill:#3E2344;" d="M261.942,210.65c-0.017,0.052,1.596-0.506,2.107-0.5c0.511,0.006,2.441,0.314,2.603,0.126
										c0.162-0.188,0.289-0.835,0.289-0.835s-2.629-0.257-3.17-0.119C263.229,209.46,262.089,210.205,261.942,210.65z"/>
								</g>
								<g>
									<path style="fill:#3E2344;" d="M270.792,212.752c-0.029,0.35-0.489,0.375-1.049,0.328c-0.561-0.047-1.01-0.148-0.98-0.498
										c0.029-0.35,0.507-0.596,1.068-0.549C270.39,212.08,270.821,212.402,270.792,212.752z"/>
									<path style="fill:#3E2344;" d="M271.507,211.45c0.004,0.054-0.692-0.833-1.04-0.899c-0.348-0.066-2.021,0.076-2.104-0.132
										c-0.084-0.208-0.079-0.866-0.079-0.866s2.234,0.169,2.582,0.38C271.215,210.146,271.47,210.99,271.507,211.45z"/>
								</g>
								<g>
									<path style="opacity:0.5;fill:#E57E55;" d="M267.906,215.744c0,0-1.296-0.043-1.266-0.398
										c0.03-0.355,2.742-0.745,2.892-0.489C269.681,215.112,268.489,215.581,267.906,215.744z"/>
									<path style="fill:#E57E55;" d="M268.13,210.354c0,0-0.379,1.624-0.185,2.209c0.195,0.585,1.384,1.903,1.41,2.181
										c0.025,0.278-1.348,0.959-1.448,1c-0.101,0.04,1.956-0.275,1.896-0.914c-0.06-0.639-1.59-2.242-1.645-2.555
										C268.103,211.962,268.13,210.354,268.13,210.354z"/>
								</g>
								<path style="fill:#3E2344;" d="M258.885,213.04c0.403-0.272,1.064-2.616,0.361-4.871c-0.63-2.02,0.965-3.514,2.087-3.637
									c1.286-0.141,5.456,1.043,7.105,0.84c3.615-0.444,6.415-1.51,6.409-2.178c-0.006-0.668-2.652,0.025-2.652,0.025
									s4.03-1.028,3.665-4.4c0,0-3.03,0.223-5.736-0.704c-2.706-0.927-9.185-2.003-12.63,0.555
									c-2.255,1.675-3.856,7.133-0.869,9.908C257.987,209.843,258.115,213.561,258.885,213.04z"/>
							</g>
						</g>
						<path style="opacity:0.7;fill-rule:evenodd;clip-rule:evenodd;fill:#A1ABAD;" d="M268.284,234.951
							c0,0-1.722,34.208-1.343,37.428c0.379,3.22-0.247,15.582,7.562,17.96c0,0-3.49-17.845-2.996-28.566
							C272.001,251.052,268.284,234.951,268.284,234.951z"/>
					</g>
					<path style="fill:#FD6141;" d="M265.79,227.208c0,0,3.359,10.712,3.173,24.677c-0.187,13.964-0.753,42.609,9.581,41.944
						c0,0-4.356-17.597-4.09-23.99c0.266-6.393,3.727-29.887,2.455-33.913C275.068,230.094,265.79,227.208,265.79,227.208z"/>
					<g>
						<path style="fill:#FD6141;" d="M253.929,226.704c0,0,6.968,10.903,9.201,29.382c1.064,8.809-0.129,22.769-1.459,31.683
							c-1.531,10.262-21.619,10.246-22.907,7.555c-1.288-2.69,4.465-19.736,2.671-29.421c-1.794-9.685-2.852-25.498-0.711-30.7
							C242.865,230.003,253.929,226.704,253.929,226.704z"/>
						
							<path style="fill:none;stroke:#FFFFFF;stroke-width:0.4986;stroke-linecap:round;stroke-linejoin:round;stroke-miterlimit:10;" d="
							M243.852,245.221c0,0,3.419,16.488,2.982,25.216c-0.437,8.728-3.218,26.361-3.218,26.361"/>
						<path style="fill:#DD4026;" d="M241.445,236.53c-0.429,1.043-0.724,2.532-0.909,4.312
							c1.883,14.381,9.972,30.498,22.395,36.284c0.41-4.671,0.657-9.603,0.59-14.028c-8.323-8.29-14.688-19.066-19.561-29.689
							C242.829,234.344,241.915,235.389,241.445,236.53z"/>
					</g>
				</g>
				<g>
					<path style="fill:#FFB072;" d="M290.101,274.079c0,0,6.193,1.449,6.948,2.309c0.755,0.86,2.022,3.804,1.871,4.397
						c-0.15,0.593-3.425,1.886-4.797,1.695c-1.372-0.191-2.865-0.964-2.865-0.964c0.205-0.73,0.15-1.386-0.611-1.623
						c-0.804-0.25-1.658,0.184-3.059,0.815C284.399,282.143,286.327,272.825,290.101,274.079z"/>
					<path style="fill:#FF8976;" d="M240.443,244.105c1.665,9.228,13.467,22.994,18.518,27.327
						c4.427,3.798,26.288,10.245,27.253,10.296c2.24,0.477,5.09-7.587,3.35-8.628c-1.74-1.041-21.225-10.008-23.336-12.353
						c-2.11-2.346-9.848-23.186-15.344-27.945C245.387,228.043,238.563,233.689,240.443,244.105z"/>
				</g>
			</g>
		</g>
		<g>
			<g>
				<path style="fill-rule:evenodd;clip-rule:evenodd;fill:#FD6141;" d="M596.086,229.264c8.959-12.913,18.202-10.111,21.598-4.668
					c3.396,5.443,0.946,13.528-6.126,20.212c-5.073,5.083-15.229,8.626-23.386,10.567c-5.707-6.143-12.187-14.728-13.584-21.772
					c-2.171-9.485,0.28-17.57,6.126-20.212C586.561,210.749,595.803,213.55,596.086,229.264z"/>
			</g>
			<g style="opacity:0.5;">
				<path style="fill-rule:evenodd;clip-rule:evenodd;fill:#DD4026;" d="M617.684,224.596c-2.9-4.648-10.064-7.361-17.674-0.016
					c6.481-5.11,15.772-5.208,16.584,4.139c0.853,9.814-7.013,16.521-16.071,14.807c-11.888-2.249-8.965-12.219-14.613-17.098
					c-4.417-3.714-9.655,1.901-9.889,6.504c-0.106,2.088,0.115,4.179,0.468,6.161c2.678,5.68,7.398,11.668,11.682,16.281
					c8.157-1.941,18.313-5.484,23.386-10.567C618.63,238.124,621.08,230.039,617.684,224.596z"/>
			</g>
		</g>
		<g>
			<ellipse style="opacity:0.2;fill:#764582;" cx="486.474" cy="382.679" rx="49.29" ry="2.836"/>
			<g>
				<g>
					<g>
						<g>
							<g>
								<g>
									<defs>
										<path id="SVGID_00000011722560534312665460000011157147199550666911_" d="M495.551,371.576c0,0,2.045,1.791,2.388,2.298
											c0.339,0.5,1.656,4.223,1.656,4.223c-0.283,0.536-1.199,1.318-2.058,1.422l-1.658-2.134c0,0-0.848,3.731-1.705,4.942
											c-1.035,1.464-6.971,3.153-7.858,2.708c0,0-1.091-2.174,0.769-3.367c3.435-2.202,3.518-6.821,3.518-6.821
											C490.097,372.125,493.079,370.052,495.551,371.576z"/>
									</defs>
									<use xlink:href="#SVGID_00000011722560534312665460000011157147199550666911_"  style="overflow:visible;fill:#FD6141;"/>
									<clipPath id="SVGID_00000151540188637114219920000015998348553893423497_">
										<use xlink:href="#SVGID_00000011722560534312665460000011157147199550666911_"  style="overflow:visible;"/>
									</clipPath>
									<path style="clip-path:url(#SVGID_00000151540188637114219920000015998348553893423497_);fill:#DD4026;" d="
										M485.617,384.707c0.105-0.054,7.595-1.063,8.48-3.273c0.693-1.73,1.153-4.645,1.554-4.987
										c0.401-0.341,2.288-2.573,2.288-2.573l2.997,5.218l-11.277,9.49L485.617,384.707z"/>
								</g>
								<path style="fill:#F7B614;" d="M489.211,379.726l1.023,0.218c0,0,0.725-0.996,0.659-1.893l-0.999-0.349
									c-0.181-0.063-0.379,0.03-0.445,0.21l-0.495,1.35C488.881,379.462,489.002,379.681,489.211,379.726z"/>
							</g>
							<path style="fill:#FFB072;" d="M482.39,268.251c-0.025-0.358-9.507,41.867-9.167,53.22
								c0.212,7.073,13.434,39.623,17.381,53.376c0.757,2.638,4.861-0.458,4.539-3.196c-1.547-13.167-1.45-20.094-7.262-48.706
								c-0.905-4.456,15.086-44.397,13.82-53.754C500.437,259.833,487.385,254.74,482.39,268.251z"/>
							<path style="opacity:0.5;fill:#FFBE57;" d="M501.702,269.191c-1.265-9.357-14.317-14.45-19.312-0.94
								c-0.023-0.34-8.606,37.857-9.149,51.35c4.265-3.237,9.934-1.532,14.837,1.045
								C489.965,310.904,502.843,277.626,501.702,269.191z"/>
						</g>
						<g>
							<g>
								<g>
									<defs>
										<path id="SVGID_00000142866166453179809360000010689765289474471075_" d="M509.177,374.322c0,0,1.275,2.401,1.415,2.997
											c0.138,0.588,0.046,4.535,0.046,4.535c-0.455,0.401-1.589,0.805-2.429,0.597l-0.792-2.584c0,0-1.221,2.523-2.452,3.351
											c-1.488,1-6.788,2.227-7.679,1.789c0,0-1.223-2.364,0.743-3.373c4.923-2.525,5.359-6.014,5.359-6.014
											C503.884,372.897,507.408,372.019,509.177,374.322z"/>
									</defs>
									<use xlink:href="#SVGID_00000142866166453179809360000010689765289474471075_"  style="overflow:visible;fill:#FD6141;"/>
									<clipPath id="SVGID_00000147179964783410555360000009957207099937366421_">
										<use xlink:href="#SVGID_00000142866166453179809360000010689765289474471075_"  style="overflow:visible;"/>
									</clipPath>
									<path style="clip-path:url(#SVGID_00000147179964783410555360000009957207099937366421_);fill:#DD4026;" d="
										M496.682,384.773c0.118-0.014,6.174-0.591,7.631-1.753c1.457-1.162,2.728-3.932,3.225-4.109
										c0.496-0.177,3.053-1.592,3.053-1.592l0.946,5.943l-13.914,4.862L496.682,384.773z"/>
								</g>
								<path style="fill:#F7B614;" d="M500.595,380.048l0.879,0.567c0,0,1.032-0.674,1.289-1.535l-0.809-0.682
									c-0.147-0.124-0.365-0.106-0.491,0.039l-0.943,1.086C500.38,379.685,500.415,379.933,500.595,380.048z"/>
							</g>
							<path style="fill:#FFB072;" d="M491.753,270.974c-0.074,3.675,0.49,42.878,3.886,53.609
								c2.115,6.685,6.556,38.782,8.061,49.748c0.549,4.001,4.89,4.001,5.205,0.179c1.171-14.202,5.763-33.953,0.551-51.307
								c-1.302-4.336,4.733-49.092,0.994-57.616C506.71,257.063,492.028,257.383,491.753,270.974z"/>
							<path style="opacity:0.5;fill:#FFBE57;" d="M509.272,320.299c0.12-11.072,4.496-47.149,1.178-54.711
								c-3.74-8.524-18.422-8.204-18.697,5.386c-0.068,3.383,0.407,36.857,3.131,50.528
								C499.125,319.107,504.484,318.907,509.272,320.299z"/>
						</g>
						<g>
							<path style="fill:#FD6141;" d="M482.811,263.656l-0.421,3.853c0,0-6.895,17.48-9.867,45.854
								c7.355-2.042,21.243,4.755,41.843,1.862c0,0,8.149-36.335-6.026-52.5C494.165,246.561,483.557,255.101,482.811,263.656z"/>
							<path style="fill:#DD4026;" d="M482.836,267.363c0,0-0.549,5.44,8.866,6.4c9.415,0.96,18.751-5.84,18.516-7.84
								C509.982,263.922,482.836,267.363,482.836,267.363z"/>
							<path style="fill:none;stroke:#FFFFFF;stroke-width:0.4986;stroke-linecap:round;stroke-miterlimit:10;" d="M506.074,264.667
								c0,0,10.78,17.935,4.148,49.939"/>
						</g>
					</g>
					<g>
						<g>
							<path style="fill:#FFB072;" d="M444.493,253.396c-0.072-0.009-3.979-0.239-4.655-0.055c-0.627,0.171-2.224,0.945-2.689,1.178
								c-1.079,0.542-0.027,1.316,0.79,1.245c1.159-0.101,1.584-0.31,2.066-0.236c0.268,0.041,0.494,0.106,0.702,0.179
								c-0.428,0.363-2.204,1.611-3.566,2.136c-0.767,0.295-1.46,0.499-2.57,0.854c-0.495,0.159-0.414,0.812,0.151,0.917
								c0.398,0.074,1.767,0.08,2.971-0.376c0.477-0.181,0.959-0.38,1.4-0.585c0.01,0.044-1.022,0.646-1.523,0.874
								c-0.728,0.332-1.46,0.467-2.523,0.858c-0.488,0.18-0.356,0.748,0.213,0.829c0.153,0.022,0.442,0.046,0.807,0.042
								c-0.2,0.259-0.059,0.664,0.392,0.723c0.211,0.027,0.653-0.012,1.204-0.098c0.066,0.134,0.206,0.275,0.428,0.275
								c3.974,0.012,6.345-2.157,8.522-2.664C450.082,255.993,447.084,253.892,444.493,253.396z"/>
							<path style="fill:#552F5E;" d="M490.721,225.077c-2.701-1.532-7.311-2.036-10.944,3.139
								c-3.634,5.176-5.234,17.352-9.087,21.472c-2.297,2.457-23.153,3.167-24.637,3.912c-0.966,0.485-0.39,5.125-0.073,5.987
								c0.663,1.803,23.242,2.766,29.384,0.346C481.506,257.512,496.52,228.367,490.721,225.077z"/>
						</g>
						<path style="fill:#3E2344;" d="M481.99,202.025c0.166-1.888,0.156-5.028,2.407-7.752c2.251-2.725,11.026-5.454,15.624-2.269
							c5.653,3.915,3.807,7.579,10.855,10.422c7.048,2.843,4.916,5.997,2.902,9.217c-2.014,3.22-1.305,3.753,1.953,7.129
							c3.259,3.376,7.58,11.786,0,16.584c-7.58,4.797-23.995,1.658-30.571-4.679c-6.576-6.337,1.185-10.51-0.641-14.287
							c-1.825-3.777-3.968-2.944-3.968-6.958C480.551,206.357,481.734,204.937,481.99,202.025z"/>
						<path style="fill:#764582;" d="M496.211,220.584c0,0-14.952,2.493-15.451,7.056c-0.209,1.912,2.396,5.768,1.724,7.727
							c-0.983,2.863-2.55,4.525,0.34,11.322c2.336,5.495-1.674,16.867-1.552,18.221c0.455,5.061,8.48,5.988,11.772,5.908
							c4.693-0.113,18.189-3.132,18.189-6.089c0-2.563-6.25-8.071-6.856-12.465c-0.606-4.394,10.828-22.002,8.559-25.836
							C508.543,219.005,496.211,220.584,496.211,220.584z"/>
						<g>
							<path style="fill:#FFB072;" d="M510.556,267.728c-0.072,0.014-3.861,0.989-4.448,1.371c-0.545,0.354-1.828,1.579-2.2,1.944
								c-0.862,0.846,0.376,1.262,1.133,0.944c1.072-0.45,1.413-0.779,1.895-0.856c0.268-0.043,0.502-0.05,0.723-0.044
								c-0.296,0.477-1.606,2.208-2.742,3.124c-0.64,0.516-1.237,0.921-2.185,1.599c-0.423,0.302-0.146,0.9,0.424,0.827
								c0.402-0.051,1.707-0.464,2.714-1.266c0.399-0.318,0.797-0.655,1.154-0.985c0.023,0.039-0.776,0.928-1.183,1.298
								c-0.591,0.538-1.248,0.891-2.14,1.588c-0.409,0.32-0.11,0.821,0.456,0.724c0.153-0.026,0.435-0.092,0.781-0.206
								c-0.112,0.308,0.147,0.65,0.595,0.568c0.21-0.038,0.618-0.211,1.117-0.461c0.104,0.108,0.275,0.181,0.492,0.131
								c2.355-0.54,6.386-3.922,7.299-5.142C516.671,268.491,513.174,267.408,510.556,267.728z"/>
							<path style="fill:#764582;" d="M507.291,222.751c-2.416,1.951-4.575,6.055-1.092,11.333
								c3.483,5.278,13.402,10.766,15.823,15.861c1.443,3.038-11.957,16.069-11.982,17.73c-0.025,1.66,2.521,5.707,3.497,6.18
								c1.729,0.838,20.553-17.434,20.553-24.036C534.089,243.217,512.479,218.563,507.291,222.751z"/>
						</g>
						<path style="fill:#FFB072;" d="M498.491,209.052c0,0,0.306,3.883,1.452,6.912c1.146,3.029,2.375,3.96,3.822,5.247
							c1.447,1.287-5.777,8.96-12.208,10.906c0,0-4.664-5.682-2.525-8.849c2.139-3.167,3.833-3.446,3.067-7.675
							c-0.668-3.686-1.066-5.73-1.066-5.73L498.491,209.052z"/>
						<g>
							<g>
								<path style="fill:#FFFFFF;" d="M488.554,211.017c0,1.816-0.746,3.294-1.663,3.294c-0.917,0-1.663-1.478-1.663-3.294
									c0-1.229,0.346-2.291,0.851-2.857c0.156-0.202-0.043-0.356-0.199-0.154c-0.543,0.618-0.902,1.719-0.902,3.011
									c0,1.987,0.84,3.543,1.912,3.543c1.072,0,1.912-1.556,1.912-3.543c0-1.041-0.161-1.835-0.535-2.477
									c-0.04,0.048-0.144,0.13-0.188,0.18C488.385,209.318,488.554,210.102,488.554,211.017z"/>
							</g>
							<g>
								<path style="fill-rule:evenodd;clip-rule:evenodd;fill:#FFB072;" d="M498.491,209.052c0,0-1.042,7.898-8.463,7.338
									c-3.726-0.281-5.631-7.928-4.177-9.85c0,0-0.658-3.85,0.001-7.013c0.659-3.162,6.903-4.819,11.988-3.271
									c0,0,1.46,1.39,0.9,7.604c0,0,0.938-1.128,2.413-0.325c1.119,0.61,1.237,2.054,0.857,3.416
									C501.555,208.584,499.852,209.991,498.491,209.052z"/>
								<path style="fill:#E57E55;" d="M499.017,208.451l0.555-1.477l-0.947-0.392c0,0,0.615-2.761,2.154-1.743
									C502.044,205.674,500.597,209.012,499.017,208.451z"/>
								<g>
									<path style="fill:#FFFFFF;" d="M501.381,211.017c0,1.816-0.746,3.294-1.663,3.294s-1.663-1.478-1.663-3.294
										c0-1.229,0.346-2.291,0.851-2.857c0.156-0.202-0.043-0.356-0.199-0.154c-0.543,0.618-0.902,1.719-0.902,3.011
										c0,1.987,0.84,3.543,1.912,3.543s1.912-1.556,1.912-3.543c0-1.041-0.161-1.835-0.534-2.477
										c-0.04,0.048-0.144,0.13-0.188,0.18C501.213,209.318,501.381,210.102,501.381,211.017z"/>
								</g>
							</g>
							<g>
								<g>
									<path style="fill:#FD6141;" d="M488.072,211.462c0,0,0.504-1.232,4.4-0.829
										C492.028,212.695,488.383,213.709,488.072,211.462z"/>
									<g>
										<path style="fill:#E57E55;" d="M488.072,211.462c0,0,2.35,0.011,4.4-0.829"/>
										<path style="fill:#E57E55;" d="M488.072,211.462c1.495-0.205,2.945-0.435,4.4-0.829c-0.659,0.376-1.4,0.584-2.141,0.73
											C489.584,211.482,488.825,211.554,488.072,211.462z"/>
									</g>
								</g>
								<g>
									<path style="fill:#3E2344;" d="M485.876,206.44c0.029,0.35,0.489,0.375,1.049,0.328c0.561-0.047,1.01-0.148,0.98-0.498
										s-0.507-0.596-1.068-0.549C486.277,205.769,485.847,206.09,485.876,206.44z"/>
									<path style="fill:#3E2344;" d="M484.712,204.981c-0.017,0.051,1.3-1.123,1.654-1.104c0.353,0.019,1.668,0.509,1.799,0.327
										c0.131-0.182,0.258-0.581,0.258-0.581s-1.851-0.349-2.24-0.226C485.795,203.519,484.858,204.543,484.712,204.981z"/>
								</g>
								<g>
									<path style="fill:#3E2344;" d="M491.013,206.01c0.029,0.35,0.489,0.375,1.049,0.328c0.56-0.047,1.01-0.148,0.98-0.498
										c-0.029-0.35-0.507-0.596-1.068-0.549C491.415,205.339,490.984,205.66,491.013,206.01z"/>
									<path style="fill:#3E2344;" d="M494.342,203.78c0.028,0.046-1.744-0.68-2.185-0.568c-0.44,0.113-1.857,0.828-2.044,0.68
										s-0.399-0.512-0.399-0.512s2.07-0.702,2.573-0.682C492.79,202.719,494.102,203.381,494.342,203.78z"/>
								</g>
								<g>
									<path style="opacity:0.5;fill:#E57E55;" d="M488.761,209.432c0,0,1.296-0.043,1.266-0.398
										c-0.03-0.355-2.742-0.745-2.892-0.489C486.987,208.801,488.179,209.27,488.761,209.432z"/>
									<path style="fill:#E57E55;" d="M488.538,204.043c0,0,0.38,1.624,0.185,2.208c-0.195,0.585-1.384,1.903-1.41,2.181
										c-0.025,0.278,1.348,0.96,1.448,1c0.101,0.04-1.956-0.275-1.896-0.914c0.06-0.639,1.59-2.241,1.645-2.555
										C488.565,205.651,488.538,204.043,488.538,204.043z"/>
								</g>
							</g>
						</g>
						<path style="fill:#3E2344;" d="M496.211,196.826c-6.183,0.654-8.927,6.475-13.456,6.479
							c-2.803-4.87,5.763-17.233,15.869-7.636c4.634,4.4,0.455,7.773,0.455,7.773L498.047,207c0,0,0.09-2.671-0.86-3.695
							C494.39,200.29,496.211,196.826,496.211,196.826z"/>
					</g>
				</g>
			</g>
		</g>
		<g>
			<path style="opacity:0.3;fill:#764582;" d="M455.754,164.044l-63.542-15.638l0,0l-8.036-1.978
				c-3.128-0.77-6.288,1.142-7.058,4.27l-6.312,25.647l0,0l-0.359,1.46l-2.887,11.729c-0.77,3.128,1.142,6.288,4.27,7.058
				l70.439,17.336c3.128,0.77,6.288-1.142,7.058-4.27l0.843-3.425l0,0l2.403-9.765l0,0l3.504-14.238l0,0l3.088-12.548
				C459.781,167.184,458.254,164.659,455.754,164.044z"/>
			<g>
				<path style="fill:#FFBE57;" d="M441.133,211.607l-70.439-17.336c-3.128-0.77-5.04-3.93-4.27-7.058l9.558-38.837
					c0.77-3.128,3.93-5.04,7.058-4.27l70.439,17.336c3.128,0.77,5.04,3.93,4.27,7.058l-9.558,38.837
					C447.421,210.465,444.261,212.377,441.133,211.607z"/>
				<path style="fill:#FFD25A;" d="M380.819,158.098c-2.397,6.392-1.598,15.181,4.794,18.377
					c22.892,13.638,47.268,12.429,69.328,3.435l3.088-12.548c0.615-2.499-0.912-5.024-3.412-5.639l-63.542-15.638
					C386.316,148.786,382.892,153.435,380.819,158.098z"/>
				
					<rect x="367.248" y="183.939" transform="matrix(0.971 0.239 -0.239 0.971 57.0211 -92.3521)" style="fill:#764582;" width="84.207" height="10.056"/>
				<path style="fill:#764582;" d="M405.125,160.538l-24.708-6.081c-1.255-0.309-2.022-1.577-1.713-2.832l0.083-0.337
					c0.309-1.255,1.577-2.022,2.832-1.713l24.708,6.081c1.255,0.309,2.022,1.577,1.713,2.832l-0.083,0.337
					C407.648,160.08,406.38,160.847,405.125,160.538z"/>
				<path style="fill:#764582;" d="M426.789,171.048l-48.71-11.988c-0.628-0.154-1.011-0.788-0.857-1.416l0.042-0.168
					c0.155-0.628,0.788-1.011,1.416-0.857l48.711,11.988c0.628,0.154,1.011,0.788,0.857,1.416l-0.041,0.169
					C428.051,170.819,427.417,171.202,426.789,171.048z"/>
				<g>
					<path style="fill:#FFFFFF;" d="M416.805,180.312l-1.588-0.391c-0.883-0.217-1.422-1.109-1.205-1.991l0.058-0.237
						c0.217-0.882,1.109-1.422,1.991-1.205l1.588,0.391c0.883,0.217,1.422,1.109,1.205,1.991l-0.058,0.237
						C418.579,179.99,417.688,180.529,416.805,180.312z"/>
					<path style="fill:#FFFFFF;" d="M422.893,181.811l-1.588-0.391c-0.883-0.217-1.422-1.109-1.205-1.991l0.058-0.237
						c0.217-0.882,1.109-1.422,1.991-1.205l1.588,0.391c0.883,0.217,1.422,1.109,1.205,1.991l-0.058,0.237
						C424.667,181.488,423.776,182.028,422.893,181.811z"/>
					<path style="fill:#FFFFFF;" d="M428.982,183.309l-1.588-0.391c-0.883-0.217-1.422-1.109-1.205-1.991l0.058-0.237
						c0.217-0.883,1.109-1.422,1.991-1.205l1.588,0.391c0.883,0.217,1.422,1.109,1.205,1.991l-0.058,0.237
						C430.756,182.987,429.864,183.526,428.982,183.309z"/>
				</g>
				<g>
					<path style="fill:#FD6141;" d="M443.37,165.297c-0.719-1.256-1.926-2.23-3.443-2.603c-2.938-0.723-5.906,1.072-6.629,4.01
						c-0.723,2.938,1.072,5.906,4.01,6.629c1.516,0.373,3.038,0.072,4.257-0.708c-0.674-1.178-0.918-2.604-0.568-4.026
						C441.349,167.177,442.227,166.027,443.37,165.297z"/>
					<path style="fill:#FD6141;" d="M447.627,164.589c-1.516-0.373-3.038-0.072-4.257,0.708c0.674,1.178,0.918,2.604,0.568,4.026
						c-0.35,1.422-1.228,2.572-2.371,3.302c0.718,1.256,1.926,2.23,3.443,2.603c2.938,0.723,5.906-1.072,6.629-4.01
						S450.565,165.312,447.627,164.589z"/>
				</g>
			</g>
		</g>
	</g>
</g>
<g id="DESIGNED_BY_FREEPIK">
	<g>
		<g id="XMLID_319_">
			<g id="XMLID_338_">
				<path id="XMLID_346_" style="fill:#112129;" d="M385.104,465.465c-0.432,0.443-0.803,0.931-1.108,1.453l-0.465-0.241
					c-0.067-0.298-0.349-0.503-0.659-0.466c-0.331,0.039-0.568,0.339-0.529,0.67c0.039,0.331,0.339,0.568,0.67,0.529
					c0.066-0.008,0.127-0.026,0.184-0.052l0.451,0.234c-0.251,0.554-0.433,1.139-0.539,1.744l0.747,0.132
					c0.23-1.306,0.85-2.507,1.792-3.473L385.104,465.465z"/>
				<path id="XMLID_345_" style="fill:#112129;" d="M390.592,463.163c-0.171,0-0.341,0.006-0.51,0.017l-0.074-0.626
					c0.188-0.149,0.296-0.389,0.266-0.645c-0.046-0.393-0.402-0.674-0.795-0.628c-0.393,0.046-0.674,0.402-0.628,0.795
					c0.03,0.254,0.189,0.461,0.404,0.564l0.074,0.624c-0.714,0.116-1.403,0.332-2.06,0.646l0.327,0.684
					c0.934-0.447,1.942-0.673,2.995-0.673c0.496,0,0.993,0.053,1.475,0.158l0.161-0.741
					C391.692,463.222,391.142,463.163,390.592,463.163z"/>
				<path id="XMLID_344_" style="fill:#112129;" d="M397.194,465.711c0.331-0.04,0.566-0.341,0.526-0.672
					c-0.04-0.331-0.341-0.566-0.672-0.526c-0.309,0.038-0.535,0.304-0.53,0.609l-0.416,0.363c-0.418-0.43-0.889-0.813-1.408-1.139
					l-0.404,0.641c1.134,0.715,2.021,1.726,2.563,2.925l0.69-0.313c-0.251-0.554-0.567-1.072-0.942-1.545l0.402-0.351
					C397.065,465.716,397.129,465.719,397.194,465.711z"/>
				<path id="XMLID_343_" style="fill:#112129;" d="M390.044,473.372c-0.386,0.023-0.775,0.035-1.157,0.035
					c-0.88,0-1.733-0.061-2.478-0.179c-0.39-0.062-0.846-0.155-1.27-0.292c1.046,1.861,3.069,3.125,5.388,3.125
					c2.855,0,5.262-1.916,5.95-4.504c-0.682,0.449-1.505,0.825-2.459,1.123C392.839,473.047,391.463,473.286,390.044,473.372z"/>
				<path id="XMLID_339_" style="fill:#112129;" d="M390.592,464.68c-3.352,0-6.08,2.666-6.08,5.943
					c0,0.426,0.046,0.849,0.137,1.261c0.673,0.483,2.706,0.89,5.348,0.731c2.879-0.173,5.297-0.957,6.672-2.159
					c-0.006-0.195-0.021-0.39-0.045-0.582C396.244,466.913,393.65,464.68,390.592,464.68z M388.432,471.194
					c-1.02,0-1.85-0.83-1.85-1.85c0-1.02,0.83-1.85,1.85-1.85c1.02,0,1.85,0.83,1.85,1.85
					C390.282,470.365,389.452,471.194,388.432,471.194z M393.17,470.286c-0.75,0-1.36-0.61-1.36-1.36s0.61-1.361,1.36-1.361
					c0.75,0,1.361,0.61,1.361,1.361S393.92,470.286,393.17,470.286z"/>
			</g>
			<path id="XMLID_336_" style="fill:#112129;" d="M406.595,466.547c-0.295-0.116-0.805-0.309-1.382-0.237
				c-0.551,0.069-0.844,0.341-0.844,1.007v0.866h2.228v1.717h-2.228v5.455h-1.932v-5.455h-1.34v-1.717h1.34v-0.888
				c0-1.68,0.896-2.783,2.568-2.783c0.643,0,1.157,0.122,1.59,0.308L406.595,466.547z"/>
			<path id="XMLID_334_" style="fill:#112129;" d="M411.298,469.879c-0.177-0.03-0.358-0.046-0.526-0.046
				c-0.896,0-1.51,0.548-1.51,1.614v3.908h-1.932v-7.172h1.873v0.785c0.451-0.673,1.14-0.977,2.021-0.977
				c0.414,0,0.848,0.128,1.094,0.337L411.298,469.879z"/>
			<path id="XMLID_331_" style="fill:#112129;" d="M418.965,471.757c0,0.222-0.015,0.489-0.037,0.651h-5.085
				c0.207,1.036,0.933,1.488,1.843,1.488c0.622,0,1.295-0.252,1.813-0.688l1.133,1.243c-0.814,0.748-1.85,1.088-3.057,1.088
				c-2.198,0-3.723-1.495-3.723-3.753c0-2.258,1.48-3.797,3.627-3.797C417.544,467.99,418.958,469.522,418.965,471.757z
				 M413.851,471.091h3.175c-0.177-0.918-0.733-1.436-1.562-1.436C414.554,469.655,414.021,470.203,413.851,471.091z"/>
			<path id="XMLID_328_" style="fill:#112129;" d="M426.618,471.757c0,0.222-0.015,0.489-0.037,0.651h-5.085
				c0.207,1.036,0.933,1.488,1.843,1.488c0.622,0,1.295-0.252,1.814-0.688l1.132,1.243c-0.814,0.748-1.85,1.088-3.057,1.088
				c-2.198,0-3.723-1.495-3.723-3.753c0-2.258,1.48-3.797,3.627-3.797C425.197,467.99,426.611,469.522,426.618,471.757z
				 M421.504,471.091h3.175c-0.178-0.918-0.733-1.436-1.562-1.436C422.207,469.655,421.674,470.203,421.504,471.091z"/>
			<path id="XMLID_325_" style="fill:#112129;" d="M434.964,471.764c0,2.154-1.495,3.775-3.471,3.775
				c-0.962,0-1.643-0.378-2.109-0.933v3.708h-1.924v-10.133h1.887v0.792c0.466-0.585,1.155-0.984,2.139-0.984
				C433.469,467.99,434.964,469.61,434.964,471.764z M429.287,471.764c0,1.132,0.748,1.976,1.843,1.976
				c1.14,0,1.85-0.881,1.85-1.976c0-1.095-0.71-1.976-1.85-1.976C430.035,469.788,429.287,470.632,429.287,471.764z"/>
			<path id="XMLID_322_" style="fill:#112129;" d="M438.068,465.836c0,0.696-0.54,1.229-1.236,1.229
				c-0.696,0-1.229-0.533-1.229-1.229c0-0.696,0.533-1.243,1.229-1.243C437.527,464.592,438.068,465.14,438.068,465.836z
				 M437.809,475.354h-1.932v-7.172h1.932V475.354z"/>
			<path id="XMLID_320_" style="fill:#112129;" d="M441.032,470.736l2.701-2.554h2.368l-3.479,3.375l3.501,3.797h-2.376
				l-2.716-2.901v2.901H439.1v-10.658h1.932V470.736z"/>
		</g>
		<g>
			<path style="fill:#112129;" d="M309.412,475.289v-1.055c-0.527,0.718-1.391,1.23-2.387,1.23c-1.846,0-3.149-1.406-3.149-3.706
				c0-2.256,1.289-3.721,3.149-3.721c0.952,0,1.816,0.469,2.387,1.245v-3.765h1.099v9.77H309.412z M309.412,473.37v-3.208
				c-0.395-0.615-1.245-1.143-2.124-1.143c-1.421,0-2.27,1.172-2.27,2.739c0,1.567,0.85,2.724,2.27,2.724
				C308.168,474.483,309.017,473.986,309.412,473.37z"/>
			<path style="fill:#112129;" d="M311.932,471.744c0-2.051,1.465-3.706,3.486-3.706c2.139,0,3.398,1.67,3.398,3.794v0.279h-5.727
				c0.088,1.333,1.026,2.446,2.549,2.446c0.805,0,1.626-0.322,2.182-0.894l0.527,0.718c-0.703,0.703-1.655,1.084-2.812,1.084
				C313.44,475.465,311.932,473.956,311.932,471.744z M315.404,468.947c-1.509,0-2.256,1.274-2.315,2.358h4.643
				C317.718,470.25,317.015,468.947,315.404,468.947z"/>
			<path style="fill:#112129;" d="M319.607,474.351l0.571-0.791c0.469,0.542,1.362,1.011,2.329,1.011c1.084,0,1.67-0.513,1.67-1.216
				c0-1.714-4.38-0.659-4.38-3.281c0-1.098,0.952-2.036,2.636-2.036c1.201,0,2.051,0.454,2.622,1.026l-0.513,0.762
				c-0.424-0.513-1.201-0.894-2.109-0.894c-0.967,0-1.567,0.483-1.567,1.113c0,1.552,4.38,0.527,4.38,3.281
				c0,1.187-0.952,2.138-2.783,2.138C321.306,475.465,320.325,475.113,319.607,474.351z"/>
			<path style="fill:#112129;" d="M326.477,466.471c0-0.41,0.337-0.747,0.732-0.747c0.41,0,0.747,0.337,0.747,0.747
				c0,0.41-0.337,0.732-0.747,0.732C326.814,467.203,326.477,466.881,326.477,466.471z M326.667,475.289v-7.075h1.099v7.075H326.667
				z"/>
			<path style="fill:#112129;" d="M329.582,477.105l0.556-0.82c0.586,0.703,1.289,0.967,2.3,0.967c1.172,0,2.27-0.571,2.27-2.124
				v-1.011c-0.513,0.718-1.377,1.26-2.373,1.26c-1.845,0-3.149-1.377-3.149-3.662c0-2.27,1.289-3.677,3.149-3.677
				c0.952,0,1.802,0.469,2.373,1.245v-1.069h1.098v6.87c0,2.344-1.641,3.076-3.369,3.076
				C331.237,478.16,330.417,477.926,329.582,477.105z M334.709,473.253v-3.091c-0.381-0.615-1.231-1.143-2.109-1.143
				c-1.421,0-2.27,1.128-2.27,2.695c0,1.553,0.849,2.695,2.27,2.695C333.478,474.41,334.328,473.868,334.709,473.253z"/>
			<path style="fill:#112129;" d="M342.413,475.289v-4.629c0-1.245-0.63-1.641-1.582-1.641c-0.865,0-1.685,0.527-2.095,1.099v5.17
				h-1.099v-7.075h1.099v1.025c0.498-0.586,1.465-1.201,2.519-1.201c1.48,0,2.256,0.747,2.256,2.285v4.966H342.413z"/>
			<path style="fill:#112129;" d="M344.932,471.744c0-2.051,1.465-3.706,3.486-3.706c2.138,0,3.398,1.67,3.398,3.794v0.279h-5.727
				c0.088,1.333,1.025,2.446,2.549,2.446c0.806,0,1.626-0.322,2.183-0.894l0.527,0.718c-0.703,0.703-1.655,1.084-2.812,1.084
				C346.441,475.465,344.932,473.956,344.932,471.744z M348.404,468.947c-1.509,0-2.256,1.274-2.314,2.358h4.643
				C350.718,470.25,350.015,468.947,348.404,468.947z"/>
			<path style="fill:#112129;" d="M358.35,475.289v-1.055c-0.527,0.718-1.392,1.23-2.388,1.23c-1.845,0-3.149-1.406-3.149-3.706
				c0-2.256,1.289-3.721,3.149-3.721c0.952,0,1.817,0.469,2.388,1.245v-3.765h1.098v9.77H358.35z M358.35,473.37v-3.208
				c-0.396-0.615-1.245-1.143-2.124-1.143c-1.421,0-2.27,1.172-2.27,2.739c0,1.567,0.849,2.724,2.27,2.724
				C357.105,474.483,357.954,473.986,358.35,473.37z"/>
			<path style="fill:#112129;" d="M364.692,475.289v-9.77h1.099v3.765c0.572-0.776,1.421-1.245,2.388-1.245
				c1.845,0,3.149,1.465,3.149,3.721c0,2.299-1.304,3.706-3.149,3.706c-0.996,0-1.86-0.513-2.388-1.23v1.055H364.692z
				 M367.9,474.483c1.436,0,2.286-1.157,2.286-2.724c0-1.568-0.85-2.739-2.286-2.739c-0.864,0-1.728,0.527-2.109,1.143v3.208
				C366.172,473.986,367.036,474.483,367.9,474.483z"/>
			<path style="fill:#112129;" d="M372.529,477.061c0.161,0.073,0.425,0.117,0.601,0.117c0.483,0,0.806-0.161,1.055-0.747
				l0.469-1.069l-2.959-7.148h1.187l2.358,5.8l2.344-5.8h1.201l-3.545,8.51c-0.425,1.025-1.143,1.421-2.08,1.435
				c-0.234,0-0.601-0.044-0.806-0.103L372.529,477.061z"/>
		</g>
	</g>
</g>
</svg>
